<svg width="150" height="140" viewBox="0 0 150 140" fill="none" xmlns="http://www.w3.org/2000/svg">
<g id="undraw_resume_re_hkth 1" clip-path="url(#clip0_397_284)">
<path id="Vector" d="M70.7183 1.16782L66.1297 3.67146L9.59723 34.5168L5.00864 37.0204C2.78211 38.2385 1.12967 40.2901 0.413865 42.725C-0.301943 45.1599 -0.0226703 47.7793 1.19042 50.0086L43.2888 127.165C44.5069 129.392 46.5585 131.044 48.9934 131.76C51.4283 132.476 54.0477 132.197 56.277 130.984L56.2888 130.977L121.975 95.1375L121.987 95.131C124.213 93.9129 125.866 91.8613 126.581 89.4264C127.297 86.9915 127.018 84.3721 125.805 82.1428L83.7065 4.98607C82.4884 2.75954 80.4368 1.1071 78.0019 0.391289C75.567 -0.324526 72.9476 -0.0452587 70.7183 1.16782Z" fill="#F2F2F2"/>
<path id="Vector_2" d="M72.0384 3.587L66.6035 6.55238L11.7635 36.4743L6.32868 39.4397C4.74311 40.3071 3.56637 41.768 3.05662 43.502C2.54687 45.236 2.74575 47.1013 3.60962 48.6888L45.708 125.846C46.5754 127.431 48.0364 128.608 49.7704 129.118C51.5043 129.627 53.3697 129.428 54.9572 128.565L54.969 128.558L120.655 92.7185L120.667 92.712C122.252 91.8445 123.429 90.3836 123.939 88.6496C124.449 86.9157 124.25 85.0503 123.386 83.4628L81.2875 6.3061C80.4201 4.72054 78.9591 3.5438 77.2252 3.03405C75.4913 2.52429 73.6259 2.72315 72.0384 3.587Z" fill="white"/>
<path id="Vector_3" d="M72.9445 27.5366L48.4462 40.9034C48.0751 41.1059 47.6387 41.1526 47.2331 41.0334C46.8275 40.9142 46.4858 40.6387 46.2833 40.2675C46.0808 39.8964 46.034 39.46 46.1533 39.0544C46.2725 38.6488 46.548 38.3072 46.9191 38.1047L71.4175 24.7378C71.7886 24.5353 72.225 24.4886 72.6306 24.6078C73.0362 24.7271 73.3779 25.0025 73.5804 25.3737C73.7829 25.7448 73.8296 26.1812 73.7104 26.5868C73.5912 26.9924 73.3157 27.3341 72.9445 27.5366Z" fill="#F2F2F2"/>
<path id="Vector_4" d="M81.2938 29.1098L51.0231 45.6261C50.652 45.8286 50.2156 45.8754 49.81 45.7562C49.4044 45.6369 49.0627 45.3614 48.8602 44.9903C48.6577 44.6192 48.6109 44.1828 48.7302 43.7772C48.8494 43.3716 49.1249 43.0299 49.496 42.8274L79.7667 26.3111C79.9505 26.2108 80.1522 26.1477 80.3604 26.1254C80.5685 26.1031 80.779 26.122 80.9799 26.181C81.1807 26.2401 81.368 26.3381 81.5309 26.4695C81.6939 26.6009 81.8294 26.7631 81.9296 26.9469C82.0299 27.1307 82.093 27.3324 82.1153 27.5405C82.1376 27.7487 82.1187 27.9592 82.0596 28.16C82.0006 28.3609 81.9026 28.5481 81.7712 28.7111C81.6398 28.8741 81.4775 29.0095 81.2938 29.1098Z" fill="#F2F2F2"/>
<path id="Vector_5" d="M38.3748 35.3392L15.7887 47.6627C15.6109 47.7597 15.4789 47.9234 15.4218 48.1178C15.3647 48.3121 15.3871 48.5212 15.4841 48.699L25.1018 66.3261C25.1988 66.5039 25.3625 66.6358 25.5569 66.693C25.7512 66.7501 25.9603 66.7277 26.1381 66.6307L48.7242 54.3073C48.902 54.2102 49.0339 54.0466 49.0911 53.8522C49.1482 53.6579 49.1258 53.4488 49.0288 53.271L39.4111 35.6439C39.314 35.4661 39.1504 35.3341 38.956 35.277C38.7617 35.2199 38.5526 35.2422 38.3748 35.3392Z" fill="#F2F2F2"/>
<path id="Vector_6" d="M85.1001 49.9024L51.8711 68.0328C51.6874 68.1331 51.4856 68.1962 51.2775 68.2185C51.0693 68.2408 50.8588 68.2219 50.658 68.1629C50.4571 68.1038 50.2699 68.0058 50.1069 67.8744C49.944 67.743 49.8085 67.5808 49.7082 67.397C49.608 67.2132 49.5449 67.0115 49.5226 66.8034C49.5003 66.5952 49.5192 66.3847 49.5782 66.1839C49.6373 65.983 49.7353 65.7958 49.8667 65.6328C49.9981 65.4699 50.1603 65.3344 50.3441 65.2341L83.573 47.1037C83.9441 46.9012 84.3805 46.8544 84.7861 46.9737C85.1917 47.0929 85.5334 47.3684 85.7359 47.7395C85.9384 48.1107 85.9852 48.547 85.8659 48.9526C85.7467 49.3583 85.4712 49.6999 85.1001 49.9024Z" fill="#F2F2F2"/>
<path id="Vector_7" d="M93.4492 51.4758L54.448 72.7557C54.0768 72.9582 53.6405 73.005 53.2348 72.8857C52.8292 72.7665 52.4876 72.491 52.2851 72.1199C52.0826 71.7487 52.0358 71.3124 52.1551 70.9067C52.2743 70.5011 52.5498 70.1595 52.9209 69.957L91.9222 48.6771C92.2933 48.4746 92.7297 48.4278 93.1353 48.547C93.541 48.6663 93.8826 48.9417 94.0851 49.3129C94.2876 49.684 94.3344 50.1204 94.2151 50.526C94.0959 50.9316 93.8204 51.2733 93.4492 51.4758Z" fill="#F2F2F2"/>
<path id="Vector_8" d="M39.216 82.8811C42.9511 82.8811 45.979 79.8532 45.979 76.1181C45.979 72.383 42.9511 69.3551 39.216 69.3551C35.4808 69.3551 32.4529 72.383 32.4529 76.1181C32.4529 79.8532 35.4808 82.8811 39.216 82.8811Z" fill="#F2F2F2"/>
<path id="Vector_9" d="M140.405 32.9602H65.5505C63.0125 32.9631 60.5794 33.9725 58.7848 35.7671C56.9902 37.5617 55.9807 39.9949 55.9778 42.5329V130.427C55.9807 132.965 56.9902 135.398 58.7848 137.193C60.5794 138.988 63.0125 139.997 65.5505 140H140.405C142.943 139.997 145.376 138.988 147.171 137.193C148.965 135.398 149.975 132.965 149.977 130.427V42.5329C149.975 39.9949 148.965 37.5617 147.171 35.7671C145.376 33.9725 142.943 32.9631 140.405 32.9602Z" fill="#E6E6E6"/>
<path id="Vector_10" d="M140.405 35.7159H65.5505C63.7432 35.718 62.0104 36.4368 60.7325 37.7148C59.4545 38.9928 58.7356 40.7255 58.7336 42.5328V130.427C58.7356 132.235 59.4545 133.967 60.7325 135.245C62.0104 136.523 63.7432 137.242 65.5505 137.244H140.405C142.212 137.242 143.945 136.523 145.223 135.245C146.501 133.967 147.22 132.235 147.222 130.427V42.5328C147.22 40.7255 146.501 38.9928 145.223 37.7148C143.945 36.4369 142.212 35.718 140.405 35.7159Z" fill="white"/>
<path id="Vector_11" d="M129.729 57.1737H101.822C101.399 57.1737 100.993 57.0057 100.694 56.7068C100.395 56.4078 100.228 56.0024 100.228 55.5796C100.228 55.1568 100.395 54.7513 100.694 54.4524C100.993 54.1534 101.399 53.9855 101.822 53.9855H129.729C129.939 53.9852 130.146 54.0263 130.34 54.1063C130.534 54.1863 130.709 54.3037 130.858 54.4517C131.006 54.5998 131.124 54.7756 131.204 54.9691C131.284 55.1626 131.325 55.3701 131.325 55.5796C131.325 55.7891 131.284 55.9965 131.204 56.19C131.124 56.3835 131.006 56.5594 130.858 56.7074C130.709 56.8555 130.534 56.9728 130.34 57.0528C130.146 57.1329 129.939 57.1739 129.729 57.1737Z" fill="#0099FF"/>
<path id="Vector_12" d="M136.305 62.5537H101.822C101.399 62.5537 100.993 62.3857 100.694 62.0868C100.395 61.7878 100.228 61.3824 100.228 60.9596C100.228 60.5368 100.395 60.1313 100.694 59.8324C100.993 59.5334 101.399 59.3655 101.822 59.3655H136.305C136.728 59.3655 137.133 59.5334 137.432 59.8324C137.731 60.1313 137.899 60.5368 137.899 60.9596C137.899 61.3824 137.731 61.7878 137.432 62.0868C137.133 62.3857 136.728 62.5537 136.305 62.5537Z" fill="#0099FF"/>
<path id="Vector_13" d="M95.6456 47.4653H69.9163C69.7137 47.4654 69.5194 47.5459 69.3762 47.6891C69.233 47.8323 69.1525 48.0266 69.1525 48.2292V68.3093C69.1525 68.5119 69.233 68.7062 69.3762 68.8494C69.5194 68.9926 69.7137 69.0731 69.9163 69.0732H95.6456C95.8481 69.0731 96.0424 68.9926 96.1856 68.8494C96.3288 68.7062 96.4093 68.5119 96.4094 68.3093V48.2292C96.4093 48.0266 96.3288 47.8323 96.1856 47.6891C96.0424 47.5459 95.8481 47.4654 95.6456 47.4653Z" fill="#E6E6E6"/>
<path id="Vector_14" d="M76.974 59.796C76.9846 61.4912 76.3598 63.1288 75.2228 64.3861C74.0978 65.6208 72.4229 66.4396 70.7327 66.1008C69.1764 65.7889 67.9117 64.4286 68.0695 62.7831C68.0957 62.4267 68.1993 62.0802 68.373 61.7679C68.5468 61.4557 68.7866 61.185 69.0757 60.9749C69.3648 60.7648 69.6963 60.6203 70.047 60.5514C70.3977 60.4825 70.7591 60.491 71.1062 60.5761C72.5847 60.9598 73.1738 63.0906 71.9418 64.0907C71.6461 64.3307 71.2214 63.911 71.5198 63.6687C72.3342 63.0076 72.0826 61.5612 71.0996 61.1984C69.9551 60.7761 68.7426 61.6844 68.6603 62.8545C68.5627 64.2418 69.6254 65.2865 70.9287 65.5325C72.3385 65.7985 73.7364 65.0769 74.6917 64.081C75.7866 62.9244 76.3907 61.3886 76.3773 59.796C76.38 59.7187 76.4126 59.6454 76.4683 59.5916C76.5239 59.5379 76.5983 59.5078 76.6757 59.5078C76.7531 59.5078 76.8274 59.5379 76.8831 59.5916C76.9388 59.6454 76.9714 59.7187 76.974 59.796Z" fill="#2F2E41"/>
<path id="Vector_15" d="M82.8009 63.5896C88.6804 63.5896 93.4466 58.8234 93.4466 52.9439C93.4466 47.0645 88.6804 42.2983 82.8009 42.2983C76.9215 42.2983 72.1553 47.0645 72.1553 52.9439C72.1553 58.8234 76.9215 63.5896 82.8009 63.5896Z" fill="#0099FF"/>
<path id="Vector_16" d="M82.2563 57.4862L82.2452 57.0884C82.9853 57.0678 83.6378 57.0214 84.1281 56.6632C84.2671 56.5558 84.3814 56.4198 84.4631 56.2644C84.5448 56.109 84.5921 55.9378 84.6018 55.7624C84.6104 55.6553 84.5942 55.5476 84.5544 55.4477C84.5147 55.3479 84.4524 55.2586 84.3725 55.1867C84.047 54.9118 83.5233 55.0008 83.1416 55.1758L82.8124 55.3267L83.4437 50.7139L83.8378 50.7679L83.3009 54.6917C83.8195 54.5392 84.3001 54.6049 84.6293 54.8829C84.7557 54.9932 84.8548 55.1313 84.919 55.2863C84.9832 55.4413 85.0107 55.609 84.9993 55.7764C84.9877 56.012 84.9247 56.2422 84.8148 56.4509C84.7048 56.6596 84.5505 56.8417 84.3628 56.9845C83.7328 57.4448 82.9141 57.4678 82.2563 57.4862Z" fill="#2F2E41"/>
<path id="Vector_17" d="M87.9296 51.1063H85.787V51.5041H87.9296V51.1063Z" fill="#2F2E41"/>
<path id="Vector_18" d="M81.1666 51.1063H79.024V51.5041H81.1666V51.1063Z" fill="#2F2E41"/>
<path id="Vector_19" d="M76.9041 69.0732C77.702 68.5669 78.5644 68.1702 79.4681 67.8937C79.3818 67.5871 79.3832 67.2626 79.472 66.9568C79.592 66.5705 79.8336 66.2333 80.1609 65.9956C80.4882 65.758 80.8836 65.6325 81.2881 65.638H83.8819C84.287 65.6328 84.683 65.7586 85.011 65.9966C85.3389 66.2345 85.5813 66.572 85.702 66.9588C85.7908 67.2639 85.7922 67.5878 85.7059 67.8937C86.6094 68.1705 87.4718 68.5672 88.2699 69.0732H76.9041Z" fill="#2F2E41"/>
<path id="Vector_20" d="M94.9952 48.993C94.8012 48.7581 94.5625 48.5641 94.293 48.4221C94.0566 48.2987 93.7939 48.2339 93.5272 48.2332C93.1609 48.2377 92.8053 48.3574 92.5108 48.5753C91.7012 49.1482 91.1403 50.3834 91.1403 51.8136C91.1403 53.6078 92.0234 55.0956 93.1711 55.3542C93.288 55.3804 93.4074 55.3938 93.5272 55.394C94.842 55.394 95.9142 53.7888 95.9142 51.8136C95.9142 50.6679 95.5541 49.6474 94.9952 48.993Z" fill="#3F3D56"/>
<path id="Vector_21" d="M73.1307 48.4897H73.1288C72.8628 48.3246 72.5566 48.2359 72.2436 48.2332C71.9768 48.2339 71.7142 48.2987 71.4777 48.4221C71.2082 48.5641 70.9696 48.7581 70.7756 48.993L70.7736 48.995C70.2167 49.6494 69.8566 50.6698 69.8566 51.8136C69.8566 53.3571 70.509 54.6739 71.424 55.1772C71.6745 55.3175 71.9565 55.3921 72.2436 55.394C72.3074 55.394 72.3712 55.39 72.4345 55.3821H72.4365C73.6618 55.2349 74.6305 53.6913 74.6305 51.8136C74.6305 50.3098 74.0079 49.0188 73.1307 48.4897Z" fill="#3F3D56"/>
<path id="Vector_22" d="M71.5732 54.8349C71.6206 54.8348 71.6673 54.8235 71.7094 54.8019C71.7515 54.7803 71.7879 54.7489 71.8155 54.7104C71.8431 54.6719 71.8612 54.6275 71.8683 54.5806C71.8753 54.5338 71.8711 54.4859 71.856 54.441C71.2857 52.7453 71.1142 50.9409 71.3547 49.168C71.5952 47.3952 72.2412 45.7017 73.2426 44.2191C74.244 42.7366 75.5738 41.5049 77.1286 40.6198C78.6834 39.7347 80.4214 39.2201 82.2074 39.1159C83.9935 39.0117 85.7795 39.3207 87.4267 40.019C89.0738 40.7172 90.5378 41.7859 91.7048 43.1419C92.8719 44.498 93.7105 46.1049 94.1555 47.8377C94.6006 49.5706 94.64 51.3827 94.2708 53.1333C94.2545 53.2107 94.2696 53.2914 94.3128 53.3577C94.356 53.424 94.4238 53.4705 94.5012 53.4868C94.5787 53.5031 94.6594 53.488 94.7257 53.4448C94.792 53.4016 94.8384 53.3338 94.8548 53.2564C95.2431 51.4159 95.2019 49.5106 94.7341 47.6886C94.2664 45.8667 93.3848 44.1771 92.1578 42.7513C90.9309 41.3255 89.3917 40.2018 87.6598 39.4676C85.928 38.7334 84.0501 38.4085 82.1723 38.5181C80.2944 38.6277 78.4671 39.1689 76.8324 40.0996C75.1978 41.0303 73.7997 42.3254 72.747 43.8842C71.6943 45.4431 71.0152 47.2238 70.7626 49.0878C70.51 50.9518 70.6906 52.849 71.2905 54.6318C71.3105 54.691 71.3485 54.7424 71.3992 54.7788C71.4499 54.8152 71.5108 54.8349 71.5732 54.8349Z" fill="#3F3D56"/>
<path id="Vector_23" d="M88.1487 46.0465C88.5703 46.622 88.3625 47.3974 87.9183 47.8935C87.3404 48.5391 86.4188 48.5798 85.6185 48.46C84.7206 48.3255 83.7681 47.9048 82.859 48.1883C82.0842 48.43 81.5315 49.1328 80.7265 49.3093C80.0126 49.4658 79.1589 49.2586 78.9086 48.4977C78.7884 48.132 79.3644 47.9753 79.4841 48.339C79.646 48.8313 80.3451 48.8215 80.7454 48.6852C81.3873 48.4666 81.882 47.9351 82.5129 47.6812C83.2566 47.3818 84.0636 47.517 84.8209 47.6875C85.5346 47.8482 86.3561 48.0865 87.0671 47.7863C87.5933 47.5641 88.0119 46.8643 87.6335 46.3477C87.4063 46.0376 87.9238 45.7396 88.1487 46.0465Z" fill="#2F2E41"/>
<path id="Vector_24" d="M129.687 82.6292H91.834C91.6247 82.6292 91.4174 82.588 91.224 82.5079C91.0306 82.4278 90.8549 82.3104 90.7068 82.1623C90.5588 82.0143 90.4414 81.8386 90.3613 81.6452C90.2812 81.4518 90.2399 81.2445 90.2399 81.0351C90.2399 80.8258 90.2812 80.6185 90.3613 80.4251C90.4414 80.2317 90.5588 80.056 90.7068 79.9079C90.8549 79.7599 91.0306 79.6425 91.224 79.5624C91.4174 79.4823 91.6247 79.441 91.834 79.441H129.687C130.11 79.4415 130.515 79.6097 130.813 79.9086C131.112 80.2075 131.28 80.6127 131.28 81.0351C131.28 81.4576 131.112 81.8628 130.813 82.1617C130.515 82.4606 130.11 82.6288 129.687 82.6292Z" fill="#E6E6E6"/>
<path id="Vector_25" d="M136.263 88.0094H91.834C91.6245 88.0096 91.417 87.9686 91.2234 87.8885C91.0298 87.8085 90.8538 87.6911 90.7056 87.5431C90.5574 87.395 90.4398 87.2192 90.3596 87.0257C90.2794 86.8322 90.2381 86.6248 90.2381 86.4153C90.2381 86.2058 90.2794 85.9983 90.3596 85.8048C90.4398 85.6113 90.5574 85.4355 90.7056 85.2874C90.8538 85.1394 91.0298 85.022 91.2234 84.942C91.417 84.862 91.6245 84.8209 91.834 84.8212H136.263C136.472 84.8209 136.68 84.862 136.874 84.942C137.067 85.022 137.243 85.1394 137.391 85.2874C137.54 85.4355 137.657 85.6113 137.737 85.8048C137.818 85.9983 137.859 86.2058 137.859 86.4153C137.859 86.6248 137.818 86.8322 137.737 87.0257C137.657 87.2192 137.54 87.395 137.391 87.5431C137.243 87.6911 137.067 87.8085 136.874 87.8885C136.68 87.9686 136.472 88.0096 136.263 88.0094Z" fill="#E6E6E6"/>
<path id="Vector_26" d="M129.687 101.966H91.834C91.4112 101.966 91.0058 101.798 90.7068 101.499C90.4079 101.2 90.2399 100.795 90.2399 100.372C90.2399 99.9493 90.4079 99.5438 90.7068 99.2449C91.0058 98.9459 91.4112 98.778 91.834 98.778H129.687C130.11 98.778 130.516 98.9459 130.815 99.2449C131.114 99.5438 131.281 99.9493 131.281 100.372C131.281 100.795 131.114 101.2 130.815 101.499C130.516 101.798 130.11 101.966 129.687 101.966Z" fill="#E6E6E6"/>
<path id="Vector_27" d="M136.263 107.346H91.834C91.4112 107.346 91.0058 107.178 90.7068 106.879C90.4079 106.58 90.2399 106.175 90.2399 105.752C90.2399 105.329 90.4079 104.924 90.7068 104.625C91.0058 104.326 91.4112 104.158 91.834 104.158H136.263C136.686 104.158 137.091 104.326 137.39 104.625C137.689 104.924 137.857 105.329 137.857 105.752C137.857 106.175 137.689 106.58 137.39 106.879C137.091 107.178 136.686 107.346 136.263 107.346Z" fill="#E6E6E6"/>
<path id="Vector_28" d="M76.8524 90.4284C80.5875 90.4284 83.6154 87.4005 83.6154 83.6654C83.6154 79.9302 80.5875 76.9023 76.8524 76.9023C73.1173 76.9023 70.0894 79.9302 70.0894 83.6654C70.0894 87.4005 73.1173 90.4284 76.8524 90.4284Z" fill="#E6E6E6"/>
<path id="Vector_29" d="M76.8524 109.922C80.5875 109.922 83.6154 106.894 83.6154 103.159C83.6154 99.4237 80.5875 96.3958 76.8524 96.3958C73.1173 96.3958 70.0894 99.4237 70.0894 103.159C70.0894 106.894 73.1173 109.922 76.8524 109.922Z" fill="#E6E6E6"/>
<path id="Vector_30" d="M129.687 121.46H91.834C91.4112 121.46 91.0058 121.292 90.7068 120.993C90.4079 120.694 90.2399 120.288 90.2399 119.865C90.2399 119.443 90.4079 119.037 90.7068 118.738C91.0058 118.439 91.4112 118.271 91.834 118.271H129.687C130.11 118.271 130.516 118.439 130.815 118.738C131.114 119.037 131.281 119.443 131.281 119.865C131.281 120.288 131.114 120.694 130.815 120.993C130.516 121.292 130.11 121.46 129.687 121.46Z" fill="#E6E6E6"/>
<path id="Vector_31" d="M136.263 126.84H91.834C91.4112 126.84 91.0058 126.672 90.7068 126.373C90.4079 126.074 90.2399 125.668 90.2399 125.246C90.2399 124.823 90.4079 124.417 90.7068 124.118C91.0058 123.819 91.4112 123.651 91.834 123.651H136.263C136.686 123.651 137.091 123.819 137.39 124.118C137.689 124.417 137.857 124.823 137.857 125.246C137.857 125.668 137.689 126.074 137.39 126.373C137.091 126.672 136.686 126.84 136.263 126.84Z" fill="#E6E6E6"/>
<path id="Vector_32" d="M76.8524 129.415C80.5875 129.415 83.6154 126.387 83.6154 122.652C83.6154 118.917 80.5875 115.889 76.8524 115.889C73.1173 115.889 70.0894 118.917 70.0894 122.652C70.0894 126.387 73.1173 129.415 76.8524 129.415Z" fill="#E6E6E6"/>
</g>
<defs>
<clipPath id="clip0_397_284">
<rect width="149.955" height="140" fill="white" transform="translate(0.022583)"/>
</clipPath>
</defs>
</svg>
