<svg width="146" height="140" viewBox="0 0 146 140" fill="none" xmlns="http://www.w3.org/2000/svg">
<g id="undraw_agreement_re_d4dv 1" clip-path="url(#clip0_397_92)">
<path id="Vector" d="M132.7 139.86V125.82C132.7 125.82 138.172 135.774 132.7 139.86Z" fill="#F1F1F1"/>
<path id="Vector_2" d="M133.038 139.858L122.696 130.363C122.696 130.363 133.728 133.064 133.038 139.858Z" fill="#F1F1F1"/>
<path id="Vector_3" d="M96.5592 61.9491L41.6756 94.0266C41.4835 94.1386 41.2548 94.1698 41.0397 94.1134C40.8247 94.057 40.6407 93.9176 40.5283 93.7257L5.23458 33.3393C5.1226 33.1472 5.09139 32.9185 5.1478 32.7034C5.2042 32.4884 5.34362 32.3044 5.53545 32.192L60.4191 0.114493C60.6112 0.00251595 60.8398 -0.0286934 61.0549 0.0277114C61.27 0.0841161 61.4539 0.223529 61.5663 0.415365L96.8601 60.8018C96.972 60.9939 97.0033 61.2226 96.9468 61.4377C96.8904 61.6527 96.751 61.8367 96.5592 61.9491Z" fill="white"/>
<path id="Vector_4" d="M96.5592 61.9491L41.6756 94.0266C41.4835 94.1386 41.2548 94.1698 41.0397 94.1134C40.8247 94.057 40.6407 93.9176 40.5283 93.7257L5.23458 33.3393C5.1226 33.1472 5.09139 32.9185 5.1478 32.7034C5.2042 32.4884 5.34362 32.3044 5.53545 32.192L60.4191 0.114493C60.6112 0.00251595 60.8398 -0.0286934 61.0549 0.0277114C61.27 0.0841161 61.4539 0.223529 61.5663 0.415365L96.8601 60.8018C96.972 60.9939 97.0033 61.2226 96.9468 61.4377C96.8904 61.6527 96.751 61.8367 96.5592 61.9491ZM5.70473 32.4816C5.58962 32.5491 5.50597 32.6594 5.47213 32.7885C5.43828 32.9175 5.45701 33.0547 5.52421 33.17L40.818 93.5565C40.8854 93.6716 40.9957 93.7552 41.1248 93.7891C41.2538 93.8229 41.391 93.8042 41.5063 93.737L96.3899 61.6594C96.505 61.592 96.5887 61.4817 96.6225 61.3526C96.6564 61.2236 96.6376 61.0864 96.5704 60.9711L61.2767 0.584631C61.2093 0.469523 61.0989 0.38587 60.9699 0.352027C60.8408 0.318184 60.7036 0.336913 60.5884 0.404106L5.70473 32.4816Z" fill="#3F3D56"/>
<path id="Vector_5" d="M40.9841 38.4952L27.3718 46.4511C27.1797 46.5631 26.9511 46.5943 26.736 46.5379C26.5209 46.4815 26.337 46.3421 26.2246 46.1502L18.2687 32.538C18.1567 32.3459 18.1255 32.1172 18.1819 31.9021C18.2383 31.687 18.3777 31.5031 18.5695 31.3907L32.1818 23.4348C32.3739 23.3228 32.6026 23.2916 32.8177 23.348C33.0327 23.4044 33.2167 23.5438 33.3291 23.7357L41.285 37.348C41.397 37.5401 41.4282 37.7687 41.3718 37.9838C41.3154 38.1989 41.176 38.3828 40.9841 38.4952ZM18.7388 31.6803C18.6237 31.7478 18.5401 31.8581 18.5062 31.9872C18.4724 32.1162 18.4911 32.2534 18.5583 32.3687L26.5142 45.981C26.5816 46.0961 26.692 46.1797 26.821 46.2136C26.9501 46.2474 27.0873 46.2287 27.2025 46.1615L40.8148 38.2056C40.93 38.1382 41.0136 38.0278 41.0474 37.8988C41.0813 37.7697 41.0626 37.6325 40.9954 37.5173L33.0395 23.905C32.972 23.7898 32.8617 23.7062 32.7326 23.6724C32.6036 23.6385 32.4664 23.6572 32.3511 23.7244L18.7388 31.6803Z" fill="#F2F2F2"/>
<path id="Vector_6" d="M38.0475 42.4458L24.4352 50.4017C24.2624 50.5025 24.0566 50.5306 23.863 50.4798C23.6694 50.429 23.5039 50.3036 23.4027 50.1309L15.4468 36.5186C15.346 36.3457 15.318 36.1399 15.3687 35.9464C15.4195 35.7528 15.5449 35.5873 15.7176 35.4861L29.3299 27.5302C29.5028 27.4294 29.7086 27.4013 29.9022 27.4521C30.0957 27.5029 30.2613 27.6283 30.3624 27.801L38.3183 41.4133C38.4191 41.5862 38.4472 41.792 38.3964 41.9855C38.3457 42.1791 38.2202 42.3446 38.0475 42.4458Z" fill="#0099FF"/>
<path id="Vector_7" d="M70.9032 32.1796L28.3286 57.063C28.1557 57.164 27.9499 57.1922 27.7562 57.1414C27.5626 57.0907 27.3971 56.965 27.296 56.7922C27.195 56.6194 27.1668 56.4135 27.2176 56.2199C27.2684 56.0262 27.394 55.8607 27.5668 55.7597L70.1415 30.8763C70.227 30.8263 70.3216 30.7936 70.4198 30.7802C70.518 30.7667 70.6179 30.7727 70.7138 30.7979C70.8097 30.823 70.8997 30.8668 70.9786 30.9267C71.0576 30.9867 71.124 31.0615 71.174 31.1471C71.224 31.2327 71.2567 31.3273 71.2701 31.4255C71.2836 31.5237 71.2776 31.6236 71.2524 31.7195C71.2273 31.8153 71.1835 31.9053 71.1236 31.9843C71.0637 32.0632 70.9888 32.1296 70.9032 32.1796Z" fill="#CCCCCC"/>
<path id="Vector_8" d="M63.2453 42.678L30.9523 61.5522C30.8667 61.6022 30.7721 61.6348 30.6739 61.6483C30.5757 61.6618 30.4759 61.6558 30.38 61.6306C30.1863 61.5798 30.0208 61.4542 29.9198 61.2814C29.8188 61.1086 29.7906 60.9027 29.8413 60.709C29.8921 60.5154 30.0177 60.3499 30.1906 60.2489L62.4836 41.3747C62.5692 41.3247 62.6637 41.2921 62.7619 41.2786C62.8601 41.2651 62.96 41.2712 63.0559 41.2963C63.1518 41.3214 63.2418 41.3652 63.3207 41.4251C63.3997 41.4851 63.4661 41.56 63.5161 41.6455C63.5661 41.7311 63.5988 41.8257 63.6122 41.9239C63.6257 42.0221 63.6197 42.122 63.5945 42.2179C63.5694 42.3138 63.5256 42.4037 63.4657 42.4827C63.4058 42.5617 63.3309 42.628 63.2453 42.678Z" fill="#CCCCCC"/>
<path id="Vector_9" d="M61.1097 15.7557L42.2842 26.7585C42.1114 26.8595 41.9055 26.8878 41.7119 26.837C41.5182 26.7862 41.3527 26.6606 41.2517 26.4878C41.1507 26.3149 41.1225 26.109 41.1733 25.9154C41.224 25.7218 41.3497 25.5562 41.5225 25.4552L60.348 14.4524C60.5208 14.3514 60.7267 14.3232 60.9203 14.3739C61.0162 14.3991 61.1062 14.4429 61.1852 14.5028C61.2641 14.5627 61.3305 14.6376 61.3805 14.7232C61.4305 14.8087 61.4632 14.9033 61.4767 15.0015C61.4901 15.0997 61.4841 15.1996 61.459 15.2955C61.4338 15.3914 61.39 15.4814 61.3301 15.5603C61.2702 15.6393 61.1953 15.7057 61.1097 15.7557Z" fill="#CCCCCC"/>
<path id="Vector_10" d="M59.0353 22.9908L44.908 31.2477C44.8224 31.2977 44.7278 31.3304 44.6296 31.3439C44.5314 31.3573 44.4315 31.3513 44.3356 31.3262C44.2398 31.301 44.1498 31.2572 44.0708 31.1973C43.9918 31.1374 43.9255 31.0625 43.8754 30.9769C43.8254 30.8913 43.7928 30.7968 43.7793 30.6986C43.7658 30.6003 43.7719 30.5005 43.797 30.4046C43.8221 30.3087 43.8659 30.2187 43.9259 30.1398C43.9858 30.0608 44.0607 29.9944 44.1462 29.9444L58.2735 21.6875C58.4464 21.5865 58.6522 21.5583 58.8459 21.609C59.0395 21.6598 59.205 21.7854 59.3061 21.9583C59.4071 22.1311 59.4353 22.337 59.3845 22.5306C59.3337 22.7243 59.2081 22.8898 59.0353 22.9908Z" fill="#CCCCCC"/>
<path id="Vector_11" d="M76.1507 41.1579L33.5761 66.0413C33.4032 66.1423 33.1974 66.1705 33.0037 66.1197C32.8101 66.0689 32.6446 65.9433 32.5435 65.7705C32.4425 65.5977 32.4143 65.3918 32.4651 65.1981C32.5159 65.0045 32.6415 64.839 32.8143 64.738L75.389 39.8546C75.5618 39.7536 75.7677 39.7254 75.9613 39.7762C76.1549 39.8269 76.3205 39.9526 76.4215 40.1254C76.5225 40.2982 76.5507 40.5041 76.4999 40.6977C76.4491 40.8914 76.3235 41.0569 76.1507 41.1579Z" fill="#CCCCCC"/>
<path id="Vector_12" d="M68.4928 51.6563L36.1998 70.5304C36.1142 70.5805 36.0196 70.6131 35.9214 70.6266C35.8232 70.64 35.7233 70.634 35.6275 70.6089C35.5316 70.5837 35.4416 70.54 35.3626 70.48C35.2837 70.4201 35.2173 70.3452 35.1673 70.2597C35.1173 70.1741 35.0846 70.0795 35.0711 69.9813C35.0577 69.8831 35.0637 69.7832 35.0888 69.6873C35.114 69.5914 35.1578 69.5014 35.2177 69.4225C35.2776 69.3435 35.3525 69.2771 35.4381 69.2271L67.7311 50.353C67.8166 50.303 67.9112 50.2703 68.0094 50.2569C68.1076 50.2434 68.2075 50.2494 68.3034 50.2746C68.3993 50.2997 68.4893 50.3435 68.5682 50.4034C68.6472 50.4633 68.7136 50.5382 68.7636 50.6238C68.8136 50.7094 68.8463 50.804 68.8597 50.9022C68.8732 51.0004 68.8672 51.1003 68.842 51.1961C68.8169 51.292 68.7731 51.382 68.7132 51.461C68.6533 51.5399 68.5784 51.6063 68.4928 51.6563Z" fill="#CCCCCC"/>
<path id="Vector_13" d="M81.3982 50.1363L38.8236 75.0197C38.738 75.0697 38.6434 75.1024 38.5452 75.1158C38.447 75.1293 38.3471 75.1233 38.2512 75.0981C38.1554 75.073 38.0654 75.0292 37.9864 74.9693C37.9075 74.9093 37.8411 74.8345 37.7911 74.7489C37.741 74.6633 37.7084 74.5687 37.6949 74.4705C37.6815 74.3723 37.6875 74.2724 37.7126 74.1765C37.7378 74.0807 37.7815 73.9907 37.8415 73.9117C37.9014 73.8328 37.9763 73.7664 38.0619 73.7164L80.6365 48.833C80.7221 48.783 80.8167 48.7503 80.9149 48.7369C81.0131 48.7234 81.113 48.7294 81.2088 48.7545C81.3047 48.7797 81.3947 48.8235 81.4736 48.8834C81.5526 48.9433 81.619 49.0182 81.669 49.1038C81.719 49.1894 81.7517 49.284 81.7651 49.3822C81.7786 49.4804 81.7726 49.5802 81.7475 49.6761C81.7223 49.772 81.6785 49.862 81.6186 49.9409C81.5587 50.0199 81.4838 50.0863 81.3982 50.1363Z" fill="#CCCCCC"/>
<path id="Vector_14" d="M84.022 54.6254L41.4473 79.5088C41.3618 79.5588 41.2672 79.5915 41.169 79.6049C41.0708 79.6184 40.9709 79.6124 40.875 79.5872C40.7791 79.5621 40.6891 79.5183 40.6102 79.4584C40.5312 79.3985 40.4648 79.3236 40.4148 79.238C40.3648 79.1524 40.3321 79.0578 40.3187 78.9596C40.3052 78.8614 40.3112 78.7616 40.3364 78.6657C40.3615 78.5698 40.4053 78.4798 40.4652 78.4008C40.5251 78.3219 40.6 78.2555 40.6856 78.2055L83.2602 53.3221C83.3458 53.2721 83.4404 53.2394 83.5386 53.226C83.6368 53.2125 83.7367 53.2185 83.8326 53.2437C83.9284 53.2688 84.0184 53.3126 84.0974 53.3725C84.1764 53.4325 84.2427 53.5073 84.2927 53.5929C84.3428 53.6785 84.3754 53.7731 84.3889 53.8713C84.4024 53.9695 84.3963 54.0694 84.3712 54.1653C84.3461 54.2611 84.3023 54.3511 84.2424 54.4301C84.1824 54.509 84.1075 54.5754 84.022 54.6254Z" fill="#CCCCCC"/>
<path id="Vector_15" d="M70.2542 72.1012C70.8457 71.4047 71.3781 70.66 71.8459 69.875C72.2655 69.1668 72.6771 68.4097 72.7696 67.5791C72.8169 67.2254 72.78 66.8656 72.662 66.5288C72.544 66.1921 72.3482 65.8879 72.0905 65.6411C71.8415 65.4115 71.5258 65.2671 71.1892 65.2289C70.8527 65.1906 70.5126 65.2605 70.2184 65.4283C69.9206 65.5992 69.6746 65.8474 69.5064 66.1467C69.3382 66.446 69.2541 66.7852 69.2629 67.1284C69.2871 67.5063 69.3963 67.8739 69.5823 68.2037C69.7683 68.5335 70.0264 68.817 70.3373 69.0331C71.5958 69.9449 73.5611 69.8972 74.9023 69.2034C76.4131 68.4219 77.1936 66.3773 76.0067 64.9777C75.7598 64.6866 75.349 65.0119 75.4109 65.3259C75.4893 65.7501 75.7267 66.1283 76.0746 66.3833C76.4226 66.6383 76.8547 66.7509 77.2828 66.698C77.7109 66.6451 78.1027 66.4307 78.378 66.0987C78.6534 65.7666 78.7916 65.342 78.7644 64.9115L78.2309 65.2233C78.885 65.5131 79.6039 65.6254 80.3153 65.5491C81.0266 65.4728 81.7054 65.2105 82.2832 64.7886C82.5689 64.5809 82.8242 64.3342 83.0415 64.0557C83.3026 63.715 83.7414 63.4948 84.0966 63.2494L86.6566 61.4805C87.0332 61.2203 86.6751 60.6003 86.2955 60.8626L83.977 62.4646C83.5906 62.7316 83.2017 62.9953 82.8177 63.2656C82.5432 63.4589 82.3743 63.7709 82.1245 64.0004C81.6516 64.4258 81.0675 64.708 80.4403 64.8141C79.8131 64.9201 79.1687 64.8458 78.5822 64.5996C78.5275 64.5702 78.4662 64.5554 78.4042 64.5565C78.3422 64.5576 78.2815 64.5746 78.2279 64.6059C78.1744 64.6372 78.1298 64.6817 78.0984 64.7352C78.067 64.7888 78.0498 64.8494 78.0486 64.9115C78.0769 65.1683 78.0025 65.426 77.8417 65.6283C77.6808 65.8306 77.4466 65.9611 77.19 65.9915C76.9333 66.0219 76.6751 65.9497 76.4714 65.7906C76.2678 65.6315 76.1353 65.3983 76.1027 65.1419L75.5069 65.4902C76.2726 66.3931 75.7627 67.7779 74.8806 68.3837C73.8941 69.0613 72.4365 69.1789 71.3245 68.7577C71.0517 68.6638 70.8013 68.5147 70.5887 68.3197C70.3762 68.1247 70.2061 67.888 70.0892 67.6243C69.9808 67.386 69.9499 67.1198 70.0008 66.8631C70.0517 66.6064 70.1818 66.3721 70.3729 66.1933C70.5385 66.0297 70.7612 65.9369 70.9939 65.9344C71.2267 65.9319 71.4513 66.02 71.6203 66.18C71.8044 66.3679 71.9395 66.5983 72.0136 66.8508C72.0878 67.1032 72.0987 67.37 72.0455 67.6277C71.9308 68.3447 71.5344 69.006 71.1657 69.6184C70.7446 70.3163 70.2684 70.9794 69.7417 71.6014C69.4464 71.9508 69.9558 72.4543 70.2542 72.1012Z" fill="#0099FF"/>
<path id="Vector_16" d="M76.6085 89.1186C76.6702 89.1821 76.7268 89.2503 76.7777 89.3226L84.7057 89.1286L85.6306 87.4386L88.3636 88.501L87.0171 91.6521C86.9083 91.9066 86.7199 92.119 86.4801 92.2574C86.2403 92.3958 85.9621 92.4526 85.6873 92.4194L76.7302 91.3374C76.5189 91.6048 76.2312 91.8017 75.9053 91.9016C75.5794 92.0016 75.2308 92 74.9059 91.897C74.5809 91.7941 74.295 91.5946 74.0862 91.3252C73.8774 91.0558 73.7556 90.7292 73.7369 90.3888C73.7182 90.0484 73.8036 89.7105 73.9817 89.4198C74.1599 89.1292 74.4222 88.8997 74.7339 88.7618C75.0457 88.6239 75.392 88.5842 75.7269 88.6479C76.0617 88.7117 76.3692 88.8759 76.6085 89.1186Z" fill="#FFB7B7"/>
<path id="Vector_17" d="M102.453 137.266H99.8459L98.6057 127.211L102.453 127.211L102.453 137.266Z" fill="#FFB7B7"/>
<path id="Vector_18" d="M103.117 139.793L94.712 139.793V139.686C94.7121 138.819 95.0568 137.987 95.6703 137.373C96.2838 136.76 97.1159 136.415 97.9836 136.415H97.9838L103.117 136.415L103.117 139.793Z" fill="#2F2E41"/>
<path id="Vector_19" d="M78.7821 137.208L76.385 136.184L79.1943 126.45L82.7322 127.962L78.7821 137.208Z" fill="#FFB7B7"/>
<path id="Vector_20" d="M78.4009 139.793L70.6714 136.491L70.7131 136.393C71.054 135.595 71.6979 134.965 72.5031 134.642C73.3083 134.319 74.2089 134.329 75.0069 134.67L75.007 134.67L79.728 136.686L78.4009 139.793Z" fill="#2F2E41"/>
<path id="Vector_21" d="M89.7819 91.2968L89.5933 94.3514L95.1035 94.9411L100.869 95.5581L99.1718 90.9197L89.7819 91.2968Z" fill="#FFB7B7"/>
<path id="Vector_22" d="M89.4198 94.3907L87.2793 79.4682L90.9894 78.2523L92.0792 76.7578L97.3821 77.0716L98.1606 78.8155L100.988 80.1516L100.554 88.2219L100.871 94.973L89.4198 94.3907Z" fill="#2F2E41"/>
<path id="Vector_23" d="M88.0726 90.3917L84.2987 88.8818L84.3148 88.8146C84.331 88.7469 85.9372 82.0348 86.1505 80.9562C86.3726 79.8325 87.1843 79.5218 87.2188 79.5092L87.244 79.4999L88.7375 79.9545L89.3934 85.1082L88.0726 90.3917Z" fill="#2F2E41"/>
<path id="Vector_24" d="M80.7236 135.441L75.7001 134.41L83.7292 112.255L86.4771 104.698C86.4771 104.698 88.22 98.6393 89.0075 96.2946L89.4827 93.1484L100.732 94.3936C100.732 94.3936 103.874 99.0078 102.919 106.529L103.351 134.797L98.3276 135.054L94.1198 106.545L86.7348 122.174C86.7348 122.174 84.4071 128.843 82.7417 130.289L80.7236 135.441Z" fill="#2F2E41"/>
<path id="Vector_25" d="M96.2208 95.4429C96.3093 95.4408 96.3978 95.4456 96.4855 95.4575L101.734 89.512L101.123 87.6847L103.76 86.403L105.155 89.5328C105.268 89.7856 105.296 90.0682 105.234 90.3381C105.173 90.608 105.025 90.8507 104.814 91.0296L97.9305 96.8622C97.983 97.199 97.9317 97.5438 97.7834 97.8507C97.6352 98.1577 97.397 98.4122 97.1006 98.5805C96.8041 98.7487 96.4635 98.8228 96.1239 98.7927C95.7844 98.7627 95.4621 98.6299 95.1998 98.4122C94.9375 98.1945 94.7477 97.9021 94.6557 97.5739C94.5637 97.2457 94.5738 96.8972 94.6846 96.5749C94.7954 96.2525 95.0018 95.9716 95.2762 95.7693C95.5506 95.5671 95.8801 95.4533 96.2208 95.4429Z" fill="#FFB7B7"/>
<path id="Vector_26" d="M101.315 90.0906L99.1254 84.9411L99.9792 81.3542L100.899 80.1918C100.967 80.163 101.039 80.1485 101.112 80.1492C101.186 80.1499 101.258 80.1658 101.325 80.1958C101.664 80.3324 101.953 80.7509 102.184 81.4398L104.235 87.2838L101.315 90.0906Z" fill="#2F2E41"/>
<path id="Vector_27" d="M89.9565 74.8497V70.9674C89.9565 69.5877 90.5046 68.2644 91.4802 67.2888C92.4558 66.3132 93.779 65.7651 95.1587 65.7651C96.5384 65.7651 97.8617 66.3132 98.8373 67.2888C99.8129 68.2644 100.361 69.5877 100.361 70.9674V74.8497C100.361 75.0349 100.287 75.2125 100.156 75.3436C100.025 75.4746 99.8474 75.5483 99.6622 75.5485H90.6553C90.47 75.5483 90.2924 75.4746 90.1614 75.3436C90.0304 75.2125 89.9567 75.0349 89.9565 74.8497Z" fill="#2F2E41"/>
<path id="Vector_28" d="M94.0897 75.458C96.1962 75.458 97.9038 73.7504 97.9038 71.6439C97.9038 69.5375 96.1962 67.8298 94.0897 67.8298C91.9832 67.8298 90.2756 69.5375 90.2756 71.6439C90.2756 73.7504 91.9832 75.458 94.0897 75.458Z" fill="#FFB7B7"/>
<path id="Vector_29" d="M88.7257 71.2779C88.727 70.1869 89.1609 69.1409 89.9324 68.3694C90.7039 67.5979 91.7499 67.164 92.841 67.1627H93.6174C94.7085 67.164 95.7545 67.5979 96.526 68.3694C97.2974 69.1409 97.7314 70.1869 97.7326 71.2779V71.3556H96.0917L95.532 69.7884L95.4201 71.3556H94.5721L94.2897 70.5649L94.2332 71.3556H88.7258L88.7257 71.2779Z" fill="#2F2E41"/>
<path id="Vector_30" d="M93.7144 75.985C93.6373 75.8807 93.5913 75.7567 93.5816 75.6274C93.572 75.4981 93.599 75.3687 93.6596 75.2541C94.4825 73.689 95.6345 70.7972 94.1053 69.0138L93.9954 68.8856H98.4348V75.5507L94.402 76.2622C94.3611 76.2695 94.3198 76.2731 94.2783 76.2732C94.1682 76.2731 94.0597 76.247 93.9617 76.1969C93.8636 76.1469 93.7789 76.0742 93.7144 75.985Z" fill="#2F2E41"/>
<path id="Vector_31" d="M41.9282 135.07L44.284 135.912L48.6526 127.225L45.1756 125.983L41.9282 135.07Z" fill="#9F616A"/>
<path id="Vector_32" d="M40.511 137.139L41.6021 134.086L46.2416 135.744C47.0252 136.025 47.6653 136.605 48.0215 137.358C48.3777 138.11 48.4209 138.973 48.1417 139.757L48.1073 139.853L40.511 137.139Z" fill="#2F2E41"/>
<path id="Vector_33" d="M57.2475 137.4L59.7492 137.4L60.9395 127.75L57.2471 127.75L57.2475 137.4Z" fill="#9F616A"/>
<path id="Vector_34" d="M56.6093 136.583L61.5362 136.583H61.5364C61.9487 136.583 62.357 136.664 62.7379 136.822C63.1189 136.98 63.465 137.211 63.7566 137.502C64.0481 137.794 64.2794 138.14 64.4372 138.521C64.595 138.902 64.6762 139.31 64.6762 139.723V139.825L56.6095 139.825L56.6093 136.583Z" fill="#2F2E41"/>
<path id="Vector_35" d="M51.5459 75.7504L52.6339 73.6005C52.6339 73.6005 56.6871 74.616 57.0556 76.9651L51.5459 75.7504Z" fill="#F1F1F1"/>
<path id="Vector_36" d="M47.0566 100.333L50.0154 116.844L42.1589 130.738L46.8524 132.575L54.811 119.107L55.8313 115.433L56.4434 134.615L60.6763 134.487L62.617 116.576L59.5043 99.9247L47.0566 100.333Z" fill="#2F2E41"/>
<path id="Vector_37" d="M52.6732 104.236C48.3265 104.236 45.5666 103.405 45.5048 103.391L45.4047 103.37L47.6688 92.8731L47.7707 83.1904C47.7707 79.0873 50.4713 76.0622 50.846 75.783C50.9091 75.5339 51.0258 75.3016 51.188 75.1024C51.3501 74.9031 51.5539 74.7416 51.7849 74.6292C52.6857 74.2204 53.7865 74.7109 53.8328 74.732L57.1367 75.9707L57.1523 76.0165C57.1921 76.1339 61.5438 90.4201 61.5438 90.4201C61.5438 90.4201 61.2804 102.903 61.1886 103.311C61.1886 103.311 55.0884 104.236 52.6732 104.236Z" fill="#3F3D56"/>
<path id="Vector_38" d="M56.0133 72.9237C58.4795 72.9237 60.4788 70.9244 60.4788 68.4582C60.4788 65.9919 58.4795 63.9927 56.0133 63.9927C53.5471 63.9927 51.5478 65.9919 51.5478 68.4582C51.5478 70.9244 53.5471 72.9237 56.0133 72.9237Z" fill="#9F616A"/>
<path id="Vector_39" opacity="0.2" d="M51.0343 83.9823L58.8467 94.8824L60.0004 89.7922L51.0343 83.9823Z" fill="black"/>
<path id="Vector_40" d="M75.5276 91.3988C75.3079 91.5726 75.0527 91.6962 74.7801 91.7607C74.5075 91.8252 74.2241 91.8292 73.9497 91.7723C73.6754 91.7154 73.4169 91.5991 73.1924 91.4315C72.9679 91.2639 72.7829 91.0492 72.6504 90.8023L65.9261 91.8787L67.3828 88.6536L73.545 88.126C73.9744 87.9308 74.4605 87.9 74.9111 88.0393C75.3618 88.1786 75.7456 88.4784 75.99 88.8818C76.2344 89.2852 76.3223 89.7643 76.2371 90.2282C76.1519 90.6921 75.8994 91.1086 75.5276 91.3988Z" fill="#9F616A"/>
<path id="Vector_41" d="M67.7291 88.4701L70.1453 88.2332L70.8148 91.6036L67.7745 91.6574L67.7291 88.4701Z" fill="#F1F1F1"/>
<path id="Vector_42" d="M69.7097 92.778L57.8766 91.7243L51.9016 82.2219L51.8832 82.1379C51.7136 81.3617 51.8323 80.5503 52.2172 79.8552C52.6021 79.1601 53.2268 78.6288 53.9747 78.3605C54.7226 78.0923 55.5426 78.1054 56.2815 78.3974C57.0204 78.6895 57.6278 79.2404 57.9903 79.9475L61.4977 86.7891L68.5764 87.8591L69.7097 92.778Z" fill="#3F3D56"/>
<path id="Vector_43" d="M52.2097 72.3352L55.916 72.4682C56.142 72.4763 56.7551 70.0381 56.8354 69.5323C56.8988 69.203 57.08 68.9081 57.345 68.7026C57.61 68.4971 57.9407 68.395 58.2754 68.4156C58.5529 68.4418 59.2525 67.9234 59.9744 67.3097C61.345 66.1444 61.2737 63.9559 59.7681 62.9713C59.727 62.9444 59.6866 62.9198 59.647 62.8976C58.6971 62.3659 57.586 62.1874 56.4976 62.1738C55.511 62.1615 54.4963 62.2856 53.6271 62.7526C52.0688 63.5899 51.2394 65.4195 51.1666 67.187C51.0937 68.9545 51.6604 70.6828 52.3034 72.3308" fill="#2F2E41"/>
<path id="Vector_44" d="M145.121 140H0.801352C0.749878 140 0.700512 139.98 0.664115 139.943C0.627717 139.907 0.607269 139.857 0.607269 139.806C0.607269 139.754 0.627717 139.705 0.664115 139.669C0.700512 139.632 0.749878 139.612 0.801352 139.612H145.199C145.25 139.612 145.299 139.632 145.336 139.669C145.372 139.705 145.393 139.754 145.393 139.806C145.393 139.913 145.229 140 145.121 140Z" fill="#CBCBCB"/>
</g>
<defs>
<clipPath id="clip0_397_92">
<rect width="144.785" height="140" fill="white" transform="translate(0.607269)"/>
</clipPath>
</defs>
</svg>
