<svg width="168" height="140" viewBox="0 0 168 140" fill="none" xmlns="http://www.w3.org/2000/svg">
<g id="undraw_online_articles_re_yrkj 1" clip-path="url(#clip0_397_194)">
<path id="Vector" d="M138.663 112.974L83.5689 87.8228L111.938 25.6814L167.032 50.8329L138.663 112.974Z" fill="#F2F2F2"/>
<path id="Vector_2" d="M147.056 76.8735L105.348 57.8331C105.269 57.7973 105.208 57.7317 105.178 57.6507C105.148 57.5698 105.151 57.4803 105.187 57.4017C105.223 57.3231 105.288 57.262 105.369 57.2318C105.45 57.2017 105.54 57.2048 105.618 57.2407L147.326 76.2811C147.405 76.317 147.466 76.3826 147.496 76.4635C147.526 76.5444 147.523 76.634 147.487 76.7125C147.451 76.7911 147.386 76.8522 147.305 76.8824C147.224 76.9126 147.134 76.9094 147.056 76.8735Z" fill="white"/>
<path id="Vector_3" d="M149.375 71.7932L107.667 52.7528C107.628 52.735 107.593 52.7098 107.564 52.6785C107.535 52.6472 107.512 52.6105 107.497 52.5704C107.482 52.5304 107.475 52.4877 107.477 52.445C107.479 52.4023 107.488 52.3603 107.506 52.3214C107.524 52.2825 107.549 52.2474 107.581 52.2183C107.612 52.1892 107.649 52.1665 107.689 52.1515C107.729 52.1366 107.771 52.1297 107.814 52.1312C107.857 52.1327 107.899 52.1426 107.938 52.1604L149.645 71.2008C149.684 71.2185 149.719 71.2438 149.748 71.2751C149.778 71.3064 149.8 71.3431 149.815 71.3831C149.83 71.4232 149.837 71.4658 149.836 71.5085C149.834 71.5513 149.824 71.5933 149.806 71.6322C149.789 71.6711 149.763 71.7061 149.732 71.7353C149.701 71.7644 149.664 71.7871 149.624 71.802C149.584 71.817 149.541 71.8239 149.499 71.8224C149.456 71.8209 149.414 71.8109 149.375 71.7932Z" fill="white"/>
<path id="Vector_4" d="M151.694 66.713L109.986 47.6726C109.948 47.6548 109.912 47.6296 109.883 47.5983C109.854 47.567 109.832 47.5303 109.817 47.4902C109.802 47.4502 109.795 47.4076 109.796 47.3648C109.798 47.3221 109.808 47.2801 109.825 47.2412C109.843 47.2023 109.868 47.1673 109.9 47.1381C109.931 47.109 109.968 47.0863 110.008 47.0713C110.048 47.0564 110.09 47.0495 110.133 47.051C110.176 47.0525 110.218 47.0624 110.257 47.0802L151.965 66.1206C152.043 66.1565 152.104 66.2221 152.134 66.303C152.164 66.3838 152.161 66.4733 152.125 66.5517C152.089 66.6302 152.024 66.6912 151.943 66.7215C151.862 66.7517 151.773 66.7486 151.694 66.713Z" fill="white"/>
<path id="Vector_5" d="M154.013 61.6327L112.306 42.5923C112.267 42.5745 112.232 42.5493 112.203 42.518C112.173 42.4867 112.151 42.45 112.136 42.4099C112.121 42.3698 112.114 42.3272 112.115 42.2845C112.117 42.2418 112.127 42.1997 112.145 42.1609C112.162 42.122 112.188 42.0869 112.219 42.0578C112.25 42.0286 112.287 42.006 112.327 41.991C112.367 41.9761 112.41 41.9691 112.452 41.9707C112.495 41.9722 112.537 41.9821 112.576 41.9999L154.284 61.0403C154.323 61.058 154.358 61.0833 154.387 61.1145C154.416 61.1458 154.439 61.1826 154.454 61.2226C154.469 61.2627 154.476 61.3053 154.474 61.348C154.472 61.3908 154.463 61.4328 154.445 61.4717C154.427 61.5106 154.402 61.5456 154.371 61.5747C154.339 61.6039 154.302 61.6266 154.262 61.6415C154.222 61.6565 154.18 61.6634 154.137 61.6619C154.094 61.6603 154.052 61.6504 154.013 61.6327Z" fill="white"/>
<path id="Vector_6" d="M144.96 81.4646L103.252 62.4242C103.213 62.4064 103.178 62.3812 103.149 62.3499C103.12 62.3186 103.097 62.2819 103.082 62.2418C103.067 62.2017 103.06 62.1591 103.062 62.1164C103.063 62.0737 103.073 62.0317 103.091 61.9928C103.109 61.9539 103.134 61.9188 103.165 61.8897C103.197 61.8606 103.233 61.8379 103.273 61.8229C103.313 61.808 103.356 61.8011 103.399 61.8026C103.442 61.8041 103.484 61.814 103.522 61.8318L145.23 80.8722C145.309 80.908 145.37 80.9736 145.4 81.0545C145.43 81.1354 145.427 81.225 145.391 81.3036C145.355 81.3821 145.29 81.4432 145.209 81.4734C145.128 81.5036 145.038 81.5004 144.96 81.4646Z" fill="white"/>
<path id="Vector_7" d="M151.924 54.1805L119.345 39.3075C119.162 39.2286 119.014 39.085 118.93 38.9041C118.845 38.7232 118.83 38.5176 118.888 38.3264C118.923 38.2225 118.979 38.127 119.053 38.0463C119.128 37.9656 119.218 37.9013 119.319 37.8578C119.419 37.8142 119.528 37.7922 119.638 37.7932C119.747 37.7943 119.856 37.8184 119.955 37.8639L152.524 52.7324C152.711 52.8117 152.862 52.9574 152.948 53.1412C153.033 53.3251 153.048 53.5341 152.989 53.7281C152.952 53.8307 152.895 53.9247 152.821 54.004C152.746 54.0833 152.656 54.1462 152.556 54.1888C152.456 54.2313 152.348 54.2526 152.239 54.2512C152.131 54.2497 152.023 54.2257 151.924 54.1805Z" fill="white"/>
<path id="Vector_8" d="M26.5686 50.8329L81.6627 25.6814L110.031 87.8228L54.9374 112.974L26.5686 50.8329Z" fill="#F2F2F2"/>
<path id="Vector_9" d="M46.5447 76.8735L88.2525 57.8331C88.2914 57.8154 88.3264 57.7901 88.3555 57.7588C88.3847 57.7275 88.4073 57.6908 88.4223 57.6507C88.4372 57.6107 88.4441 57.5681 88.4426 57.5253C88.4411 57.4826 88.4312 57.4406 88.4134 57.4017C88.3957 57.3628 88.3704 57.3278 88.3391 57.2986C88.3078 57.2695 88.2711 57.2468 88.231 57.2318C88.191 57.2169 88.1484 57.21 88.1056 57.2115C88.0629 57.213 88.0209 57.223 87.982 57.2407L46.2742 76.2811C46.2353 76.2988 46.2003 76.3241 46.1712 76.3554C46.142 76.3867 46.1194 76.4234 46.1044 76.4635C46.0895 76.5035 46.0825 76.5461 46.0841 76.5889C46.0856 76.6316 46.0955 76.6736 46.1133 76.7125C46.131 76.7514 46.1563 76.7864 46.1876 76.8156C46.2189 76.8447 46.2556 76.8674 46.2956 76.8824C46.3357 76.8973 46.3783 76.9042 46.4211 76.9027C46.4638 76.9012 46.5058 76.8913 46.5447 76.8735Z" fill="white"/>
<path id="Vector_10" d="M44.2254 71.7932L85.9332 52.7528C86.0117 52.7169 86.0728 52.6513 86.103 52.5704C86.1332 52.4895 86.13 52.3999 86.0942 52.3214C86.0583 52.2428 85.9927 52.1817 85.9118 52.1515C85.8309 52.1213 85.7413 52.1245 85.6627 52.1604L43.955 71.2008C43.9161 71.2185 43.8811 71.2438 43.8519 71.2751C43.8228 71.3064 43.8001 71.3431 43.7851 71.3831C43.7702 71.4232 43.7633 71.4658 43.7648 71.5086C43.7663 71.5513 43.7762 71.5933 43.794 71.6322C43.8118 71.6711 43.837 71.7061 43.8683 71.7353C43.8996 71.7644 43.9363 71.7871 43.9764 71.802C44.0164 71.817 44.059 71.8239 44.1018 71.8224C44.1445 71.8209 44.1865 71.8109 44.2254 71.7932Z" fill="white"/>
<path id="Vector_11" d="M41.9062 66.713L83.6139 47.6726C83.6925 47.6367 83.7536 47.5711 83.7838 47.4902C83.814 47.4093 83.8108 47.3197 83.7749 47.2412C83.7391 47.1626 83.6735 47.1015 83.5925 47.0713C83.5116 47.0411 83.422 47.0443 83.3435 47.0802L41.6357 66.1206C41.5573 66.1565 41.4963 66.2221 41.4662 66.303C41.436 66.3838 41.4392 66.4734 41.4751 66.5519C41.5109 66.6304 41.5765 66.6914 41.6573 66.7216C41.7381 66.7519 41.8277 66.7487 41.9062 66.713Z" fill="white"/>
<path id="Vector_12" d="M39.587 61.6327L81.2947 42.5923C81.3336 42.5745 81.3687 42.5493 81.3978 42.518C81.4269 42.4867 81.4496 42.45 81.4646 42.4099C81.4795 42.3698 81.4865 42.3272 81.4849 42.2845C81.4834 42.2418 81.4735 42.1997 81.4557 42.1609C81.438 42.122 81.4127 42.0869 81.3814 42.0578C81.3501 42.0286 81.3134 42.006 81.2734 41.991C81.2333 41.9761 81.1907 41.9691 81.1479 41.9707C81.1052 41.9722 81.0632 41.9821 81.0243 41.9999L39.3165 61.0403C39.238 61.0761 39.1769 61.1417 39.1467 61.2226C39.1165 61.3035 39.1197 61.3931 39.1556 61.4717C39.1914 61.5502 39.257 61.6113 39.3379 61.6415C39.4188 61.6717 39.5084 61.6685 39.587 61.6327Z" fill="white"/>
<path id="Vector_13" d="M48.6407 81.4647L90.3484 62.4243C90.427 62.3884 90.4881 62.3228 90.5182 62.2419C90.5484 62.161 90.5452 62.0714 90.5094 61.9929C90.4735 61.9143 90.4079 61.8532 90.327 61.823C90.2461 61.7928 90.1565 61.796 90.0779 61.8319L48.3702 80.8723C48.3313 80.89 48.2963 80.9153 48.2671 80.9466C48.238 80.9779 48.2153 81.0146 48.2004 81.0546C48.1854 81.0947 48.1785 81.1373 48.18 81.1801C48.1815 81.2228 48.1915 81.2648 48.2092 81.3037C48.227 81.3426 48.2522 81.3776 48.2835 81.4068C48.3148 81.4359 48.3515 81.4586 48.3916 81.4735C48.4317 81.4885 48.4743 81.4954 48.517 81.4939C48.5597 81.4924 48.6018 81.4824 48.6407 81.4647Z" fill="white"/>
<path id="Vector_14" d="M41.6759 54.1805L74.255 39.3075C74.4383 39.2286 74.5862 39.085 74.6706 38.9041C74.755 38.7232 74.77 38.5176 74.7128 38.3264C74.6777 38.2225 74.6213 38.127 74.547 38.0463C74.4728 37.9656 74.3824 37.9013 74.2817 37.8578C74.1811 37.8142 74.0724 37.7922 73.9627 37.7932C73.8531 37.7943 73.7449 37.8184 73.6451 37.8639L41.0759 52.7324C40.8893 52.8117 40.7386 52.9574 40.6528 53.1412C40.5671 53.3251 40.5525 53.5341 40.6117 53.7281C40.6479 53.8307 40.705 53.9247 40.7794 54.004C40.8539 54.0833 40.944 54.1462 41.0442 54.1888C41.1443 54.2313 41.2521 54.2526 41.3609 54.2512C41.4697 54.2497 41.577 54.2257 41.6759 54.1805Z" fill="white"/>
<path id="Vector_15" d="M6.4757 124.208C6.82354 118.82 9.82575 113.353 14.8236 111.31C13.1385 116.935 13.4972 122.974 15.8364 128.36C16.746 130.434 17.9737 132.646 17.3631 134.826C16.9833 136.183 15.9214 137.267 14.7046 137.978C13.4878 138.688 12.1136 139.074 10.7563 139.453L10.499 139.692C8.02411 134.894 6.12785 129.597 6.4757 124.208Z" fill="#F0F0F0"/>
<path id="Vector_16" d="M14.8802 111.408C12.107 114.913 10.5087 119.202 10.3122 123.667C10.2528 124.628 10.3452 125.592 10.5859 126.523C10.8498 127.423 11.3498 128.236 12.0341 128.878C12.6601 129.488 13.3712 130.041 13.8378 130.793C14.0709 131.182 14.2193 131.615 14.2731 132.065C14.3269 132.515 14.285 132.972 14.1501 133.404C13.842 134.491 13.1618 135.403 12.4656 136.271C11.6926 137.234 10.8744 138.223 10.5947 139.457C10.5609 139.606 10.3309 139.545 10.3647 139.396C10.8514 137.25 12.8285 135.93 13.6926 133.971C14.0957 133.057 14.226 132.016 13.7431 131.106C13.3209 130.309 12.5881 129.739 11.949 129.126C11.2723 128.51 10.7567 127.738 10.4472 126.877C10.1598 125.961 10.0304 125.002 10.0646 124.042C10.1072 121.88 10.4894 119.738 11.1974 117.695C11.9924 115.358 13.1812 113.175 14.7124 111.239C14.8073 111.12 14.9744 111.289 14.8802 111.408Z" fill="white"/>
<path id="Vector_17" d="M10.2908 122.226C9.54616 122.091 8.87364 121.696 8.39334 121.112C7.91303 120.527 7.65623 119.79 7.66877 119.034C7.66956 119.003 7.6823 118.974 7.7043 118.952C7.7263 118.93 7.75585 118.918 7.78671 118.918C7.81757 118.918 7.84734 118.929 7.86975 118.95C7.89215 118.972 7.90543 119.001 7.9068 119.032C7.89381 119.736 8.1331 120.422 8.58147 120.966C9.02984 121.509 9.65776 121.875 10.3519 121.996C10.5027 122.023 10.4407 122.252 10.2908 122.226Z" fill="white"/>
<path id="Vector_18" d="M11.6759 128.61C12.9548 127.739 13.8586 126.419 14.2072 124.912C14.2416 124.763 14.4716 124.824 14.4372 124.973C14.0715 126.541 13.1281 127.913 11.7953 128.815C11.6683 128.901 11.5495 128.695 11.6759 128.61Z" fill="white"/>
<path id="Vector_19" d="M12.2261 115.57C12.5034 115.682 12.8041 115.724 13.1014 115.691C13.3987 115.658 13.6831 115.552 13.9293 115.382C14.0552 115.295 14.1738 115.501 14.0487 115.588C13.7759 115.775 13.4616 115.891 13.1332 115.928C12.8049 115.965 12.4725 115.921 12.165 115.8C12.1351 115.791 12.1097 115.771 12.094 115.744C12.0783 115.717 12.0735 115.685 12.0806 115.655C12.0888 115.624 12.1087 115.598 12.136 115.583C12.1632 115.567 12.1956 115.562 12.2261 115.57Z" fill="white"/>
<path id="Vector_20" d="M30.9393 119.941C30.8622 119.998 30.7851 120.055 30.708 120.114C29.6756 120.884 28.7075 121.737 27.8133 122.664C27.743 122.734 27.6728 122.807 27.6047 122.879C25.474 125.136 23.7807 127.768 22.6108 130.642C22.1463 131.786 21.7696 132.964 21.4838 134.166C21.0893 135.825 20.7935 137.655 19.9002 139.046C19.8087 139.192 19.7081 139.332 19.5992 139.466L10.8116 139.988C10.791 139.979 10.7705 139.972 10.7498 139.963L10.3999 140C10.4103 139.937 10.4225 139.872 10.4329 139.809C10.4388 139.772 10.4466 139.736 10.4525 139.699C10.457 139.675 10.4617 139.65 10.4644 139.628C10.4659 139.62 10.4674 139.612 10.469 139.606C10.4718 139.583 10.4766 139.563 10.4795 139.543C10.5464 139.178 10.616 138.814 10.6882 138.45C10.6881 138.448 10.6881 138.448 10.6899 138.446C11.2477 135.67 12.042 132.917 13.2289 130.372C13.2647 130.295 13.3002 130.217 13.3399 130.14C13.8813 128.996 14.5153 127.897 15.2356 126.856C15.6318 126.288 16.0566 125.739 16.5083 125.214C17.678 123.857 19.0538 122.693 20.5851 121.765C23.6382 119.914 27.2493 119.06 30.6779 119.876C30.7656 119.897 30.8515 119.918 30.9393 119.941Z" fill="#F0F0F0"/>
<path id="Vector_21" d="M30.9261 120.054C26.6018 121.183 22.743 123.645 19.898 127.092C19.2723 127.823 18.7658 128.648 18.3971 129.537C18.0659 130.414 17.9758 131.364 18.136 132.289C18.268 133.153 18.5032 134.022 18.4228 134.904C18.375 135.355 18.2324 135.79 18.0044 136.182C17.7764 136.574 17.4682 136.913 17.1 137.177C16.1997 137.859 15.1079 138.177 14.0293 138.451C12.8318 138.756 11.5832 139.053 10.6171 139.869C10.5001 139.968 10.3534 139.781 10.4703 139.682C12.151 138.261 14.5244 138.398 16.3934 137.354C17.2655 136.867 17.9962 136.115 18.159 135.097C18.3013 134.207 18.0596 133.31 17.9183 132.436C17.7488 131.537 17.802 130.61 18.0734 129.736C18.3956 128.831 18.8695 127.988 19.4747 127.242C20.8104 125.541 22.4052 124.061 24.2006 122.856C26.2421 121.469 28.5058 120.442 30.8938 119.818C31.0417 119.78 31.073 120.016 30.9261 120.054Z" fill="white"/>
<path id="Vector_22" d="M20.7488 125.928C20.2353 125.372 19.9361 124.652 19.9047 123.896C19.8732 123.14 20.1116 122.397 20.5771 121.801C20.6717 121.68 20.8632 121.822 20.7685 121.942C20.334 122.497 20.112 123.189 20.1427 123.893C20.1734 124.597 20.4548 125.266 20.936 125.781C21.0404 125.893 20.8526 126.039 20.7488 125.928Z" fill="white"/>
<path id="Vector_23" d="M18.0113 131.859C19.5563 131.934 21.0729 131.424 22.2586 130.431C22.376 130.332 22.5227 130.52 22.4055 130.618C21.1697 131.649 19.5903 132.177 17.9827 132.095C17.8295 132.087 17.8589 131.851 18.0113 131.859Z" fill="white"/>
<path id="Vector_24" d="M26.3012 121.779C26.455 122.036 26.6702 122.25 26.9273 122.403C27.1844 122.555 27.4755 122.642 27.7743 122.654C27.9275 122.66 27.898 122.896 27.7457 122.891C27.4156 122.875 27.0943 122.779 26.8099 122.611C26.5254 122.443 26.2865 122.208 26.1139 121.926C26.0954 121.901 26.0872 121.869 26.091 121.838C26.0947 121.807 26.1102 121.779 26.1341 121.759C26.159 121.74 26.1905 121.731 26.2218 121.735C26.2531 121.738 26.2816 121.754 26.3012 121.779Z" fill="white"/>
<path id="Vector_25" d="M137.791 113.497H55.4086V20.5768H137.791V113.497Z" fill="white"/>
<path id="Vector_26" d="M137.791 113.497H55.4086V20.5768H137.791V113.497ZM55.8516 113.054H137.348V21.0197H55.8516L55.8516 113.054Z" fill="#CACACA"/>
<path id="Vector_27" d="M127.782 64.0841H65.4169C65.3587 64.0841 65.3012 64.0726 65.2474 64.0504C65.1937 64.0281 65.1449 63.9955 65.1037 63.9543C65.0626 63.9132 65.03 63.8644 65.0077 63.8107C64.9855 63.7569 64.974 63.6993 64.974 63.6412C64.974 63.583 64.9855 63.5254 65.0077 63.4717C65.03 63.4179 65.0626 63.3691 65.1037 63.328C65.1449 63.2868 65.1937 63.2542 65.2474 63.232C65.3012 63.2097 65.3587 63.1982 65.4169 63.1982H127.782C127.9 63.1982 128.013 63.2449 128.096 63.328C128.179 63.411 128.225 63.5237 128.225 63.6412C128.225 63.7586 128.179 63.8713 128.096 63.9543C128.013 64.0374 127.9 64.0841 127.782 64.0841Z" fill="#E4E4E4"/>
<path id="Vector_28" d="M127.782 56.4875H65.4169C65.2994 56.4875 65.1868 56.4409 65.1037 56.3578C65.0207 56.2747 64.974 56.1621 64.974 56.0446C64.974 55.9271 65.0207 55.8145 65.1037 55.7314C65.1868 55.6484 65.2994 55.6017 65.4169 55.6017H127.782C127.9 55.6017 128.013 55.6484 128.096 55.7314C128.179 55.8145 128.225 55.9271 128.225 56.0446C128.225 56.1621 128.179 56.2747 128.096 56.3578C128.013 56.4409 127.9 56.4875 127.782 56.4875Z" fill="#E4E4E4"/>
<path id="Vector_29" d="M127.782 48.8911H65.4169C65.3587 48.8911 65.3012 48.8796 65.2474 48.8574C65.1937 48.8351 65.1449 48.8025 65.1037 48.7614C65.0626 48.7202 65.03 48.6714 65.0077 48.6177C64.9855 48.5639 64.974 48.5063 64.974 48.4482C64.974 48.39 64.9855 48.3324 65.0077 48.2787C65.03 48.2249 65.0626 48.1761 65.1037 48.135C65.1449 48.0938 65.1937 48.0612 65.2474 48.039C65.3012 48.0167 65.3587 48.0052 65.4169 48.0052H127.782C127.9 48.0052 128.013 48.0519 128.096 48.135C128.179 48.218 128.225 48.3307 128.225 48.4482C128.225 48.5656 128.179 48.6783 128.096 48.7614C128.013 48.8444 127.9 48.8911 127.782 48.8911Z" fill="#E4E4E4"/>
<path id="Vector_30" d="M127.782 41.2945H65.4169C65.2994 41.2945 65.1868 41.2479 65.1037 41.1648C65.0207 41.0817 64.974 40.9691 64.974 40.8516C64.974 40.7341 65.0207 40.6215 65.1037 40.5384C65.1868 40.4554 65.2994 40.4087 65.4169 40.4087H127.782C127.9 40.4087 128.013 40.4554 128.096 40.5384C128.179 40.6215 128.225 40.7341 128.225 40.8516C128.225 40.9691 128.179 41.0817 128.096 41.1648C128.013 41.2479 127.9 41.2945 127.782 41.2945Z" fill="#E4E4E4"/>
<path id="Vector_31" d="M127.782 70.9493H65.4169C65.2994 70.9493 65.1868 70.9026 65.1037 70.8196C65.0207 70.7365 64.974 70.6239 64.974 70.5064C64.974 70.3889 65.0207 70.2763 65.1037 70.1932C65.1868 70.1101 65.2994 70.0635 65.4169 70.0635H127.782C127.9 70.0635 128.013 70.1101 128.096 70.1932C128.179 70.2763 128.225 70.3889 128.225 70.5064C128.225 70.6239 128.179 70.7365 128.096 70.8196C128.013 70.9026 127.9 70.9493 127.782 70.9493Z" fill="#E4E4E4"/>
<path id="Vector_32" d="M127.782 105.031H65.4169C65.2994 105.031 65.1868 104.984 65.1037 104.901C65.0207 104.818 64.974 104.705 64.974 104.588C64.974 104.47 65.0207 104.358 65.1037 104.275C65.1868 104.192 65.2994 104.145 65.4169 104.145H127.782C127.9 104.145 128.013 104.192 128.096 104.275C128.179 104.358 128.225 104.47 128.225 104.588C128.225 104.705 128.179 104.818 128.096 104.901C128.013 104.984 127.9 105.031 127.782 105.031Z" fill="#E4E4E4"/>
<path id="Vector_33" d="M112.843 97.9209H80.3564C80.1393 97.9207 79.9311 97.8343 79.7775 97.6808C79.624 97.5272 79.5377 97.319 79.5374 97.1019V77.9922C79.5377 77.7751 79.624 77.5669 79.7775 77.4134C79.9311 77.2598 80.1393 77.1735 80.3564 77.1732H112.843C113.06 77.1735 113.268 77.2598 113.422 77.4134C113.575 77.5669 113.662 77.7751 113.662 77.9922V97.1019C113.662 97.319 113.575 97.5272 113.422 97.6808C113.268 97.8343 113.06 97.9207 112.843 97.9209Z" fill="white"/>
<path id="Vector_34" d="M101.994 87.0039C101.829 86.8269 101.629 86.6849 101.408 86.5864C101.187 86.4879 100.948 86.4349 100.706 86.4306C100.464 86.4263 100.223 86.4707 99.9983 86.5612C99.7736 86.6517 99.5694 86.7865 99.3978 86.9575L90.2553 96.1001C90.0137 96.3411 89.6866 96.4766 89.3454 96.4772C89.0042 96.4777 88.6767 96.3431 88.4344 96.1028L87.0804 94.7515C86.913 94.584 86.7142 94.4512 86.4955 94.3605C86.2767 94.2699 86.0422 94.2232 85.8054 94.2232C85.5686 94.2232 85.3342 94.2699 85.1154 94.3605C84.8967 94.4512 84.6979 94.584 84.5305 94.7515L81.9099 97.375H111.29V97.001L101.994 87.0039Z" fill="#0099FF"/>
<path id="Vector_35" d="M112.843 97.9209H80.3564C80.1393 97.9207 79.9311 97.8343 79.7775 97.6808C79.624 97.5272 79.5377 97.319 79.5374 97.1019V77.9922C79.5377 77.7751 79.624 77.5669 79.7775 77.4134C79.9311 77.2598 80.1393 77.1735 80.3564 77.1732H112.843C113.06 77.1735 113.268 77.2598 113.422 77.4134C113.575 77.5669 113.662 77.7751 113.662 77.9922V97.1019C113.662 97.319 113.575 97.5272 113.422 97.6808C113.268 97.8343 113.06 97.9207 112.843 97.9209ZM80.3564 77.7192C80.284 77.7193 80.2146 77.7481 80.1635 77.7993C80.1123 77.8504 80.0835 77.9198 80.0834 77.9922V97.1019C80.0835 97.1743 80.1123 97.2437 80.1635 97.2949C80.2146 97.346 80.284 97.3748 80.3564 97.3749H112.843C112.915 97.3748 112.985 97.346 113.036 97.2949C113.087 97.2437 113.116 97.1743 113.116 97.1019V77.9922C113.116 77.9198 113.087 77.8504 113.036 77.7993C112.985 77.7481 112.915 77.7193 112.843 77.7192L80.3564 77.7192Z" fill="#3F3D56"/>
<path id="Vector_36" d="M34.5237 94.7267C34.6061 94.4364 34.6238 94.1315 34.5756 93.8335C34.5273 93.5356 34.4144 93.2518 34.2446 93.0023C34.0749 92.7527 33.8525 92.5434 33.5931 92.3891C33.3337 92.2347 33.0436 92.1392 32.7433 92.1091L31.0411 84.9725L28.4321 87.7526L30.4486 94.1034C30.4315 94.6113 30.6012 95.1078 30.9258 95.4988C31.2503 95.8899 31.7069 96.1483 32.2093 96.2251C32.7116 96.302 33.2246 96.1919 33.6512 95.9157C34.0778 95.6395 34.3882 95.2165 34.5237 94.7267Z" fill="#FFB6B6"/>
<path id="Vector_37" d="M29.9737 92.1382C29.8505 92.0972 29.7374 92.0308 29.6416 91.9432C29.5458 91.8556 29.4696 91.7489 29.4178 91.6299L25.8086 82.802C24.8882 80.6856 24.768 78.3068 25.4702 76.1084L27.7828 68.8644C27.818 68.4748 27.9296 68.096 28.1113 67.7496C28.293 67.4032 28.5411 67.096 28.8416 66.8455C29.1421 66.5951 29.489 66.4064 29.8625 66.2901C30.236 66.1739 30.6287 66.1324 31.0183 66.168C31.4078 66.2037 31.7865 66.3157 32.1327 66.4979C32.4789 66.68 32.7858 66.9285 33.0358 67.2293C33.2859 67.5301 33.4742 67.8773 33.59 68.2509C33.7058 68.6245 33.7468 69.0173 33.7106 69.4068L30.6437 81.0717L32.6979 90.233C32.73 90.4201 32.7039 90.6126 32.6231 90.7845C32.5423 90.9563 32.4107 91.0991 32.2461 91.1937L30.7235 92.0637C30.5601 92.1569 30.3723 92.1982 30.1849 92.1819C30.113 92.1757 30.0421 92.1611 29.9737 92.1382Z" fill="#E4E4E4"/>
<path id="Vector_38" d="M42.8103 137.37H45.3272L46.5248 127.661H42.8097L42.8103 137.37Z" fill="#FFB6B6"/>
<path id="Vector_39" d="M42.1682 136.548L47.1252 136.548H47.1254C47.9632 136.548 48.7667 136.88 49.3591 137.473C49.9515 138.065 50.2843 138.869 50.2844 139.707V139.809L42.1683 139.81L42.1682 136.548Z" fill="#2F2E41"/>
<path id="Vector_40" d="M28.6439 137.37H31.1608L32.3583 127.661H28.6432L28.6439 137.37Z" fill="#FFB6B6"/>
<path id="Vector_41" d="M28.0017 136.548L32.9587 136.548H32.9589C33.7967 136.548 34.6002 136.88 35.1926 137.473C35.785 138.065 36.1179 138.869 36.1179 139.707V139.809L28.0019 139.81L28.0017 136.548Z" fill="#2F2E41"/>
<path id="Vector_42" d="M44.3259 88.3996L29.5647 87.1008C29.5647 87.1008 28.1063 96.4067 28.3116 100.102C28.5169 103.798 28.7223 109.547 28.7223 109.547L27.0798 134.594L33.4444 133.773L34.2656 113.037L36.9347 101.745L40.0143 116.117L42.0674 134.594L47.6108 133.979L45.763 111.6C45.763 111.6 47.4055 91.4792 44.3259 88.3996Z" fill="#2F2E41"/>
<path id="Vector_43" d="M38.3718 61.0933C40.6396 61.0933 42.4781 59.2549 42.4781 56.9871C42.4781 54.7193 40.6396 52.8809 38.3718 52.8809C36.104 52.8809 34.2656 54.7193 34.2656 56.9871C34.2656 59.2549 36.104 61.0933 38.3718 61.0933Z" fill="#FFB8B8"/>
<path id="Vector_44" d="M42.8686 66.1556L39.9358 63.8211C39.9358 63.8211 36.7598 61.3705 34.8968 63.1823L34.0604 64.3782C34.0604 64.3782 29.3181 66.1556 29.3181 68.4141L29.5435 80.803C29.5435 80.803 27.901 87.1676 30.3648 87.5783L44.7163 88.7398L44.5312 76.9021L42.8686 66.1556Z" fill="#E4E4E4"/>
<path id="Vector_45" d="M35.1896 60.58C35.1896 60.58 30.878 57.5003 33.1364 53.8047C34.7032 51.2409 37.9498 51.4439 39.7914 51.8086C40.2875 51.9002 40.754 52.1111 41.1505 52.423C41.547 52.735 41.8617 53.1387 42.0675 53.5994C42.3754 54.318 42.3754 55.0366 41.1436 55.0366C38.6798 55.0366 39.9117 56.8844 39.9117 56.8844C39.9117 56.8844 38.2692 57.295 38.6798 58.7322C39.0905 60.1693 35.1896 60.58 35.1896 60.58Z" fill="#2F2E41"/>
<path id="Vector_46" d="M57.683 87.7928C57.6065 87.5008 57.4669 87.2291 57.2741 86.9969C57.0813 86.7647 56.8399 86.5776 56.5669 86.4488C56.294 86.32 55.9961 86.2526 55.6943 86.2514C55.3925 86.2501 55.094 86.3151 54.82 86.4417L49.7299 81.1578L48.8939 84.8776L53.8557 89.3249C54.0989 89.7711 54.4973 90.1127 54.9754 90.2848C55.4535 90.4569 55.9782 90.4477 56.4499 90.2588C56.9217 90.0699 57.3078 89.7146 57.535 89.2601C57.7623 88.8056 57.8149 88.2835 57.683 87.7928Z" fill="#FFB6B6"/>
<path id="Vector_47" d="M52.4488 87.8731C52.3219 87.9003 52.1907 87.9005 52.0637 87.8737C51.9368 87.8469 51.8168 87.7936 51.7118 87.7174L44.1201 81.9448C42.2526 80.5888 40.9411 78.6006 40.4298 76.3501L38.7439 68.9351C38.5761 68.5816 38.4797 68.1985 38.4601 67.8077C38.4405 67.4168 38.4982 67.026 38.6299 66.6575C38.7615 66.289 38.9645 65.95 39.2273 65.6601C39.4901 65.3701 39.8075 65.1348 40.1613 64.9677C40.5152 64.8005 40.8985 64.7048 41.2894 64.6859C41.6802 64.6671 42.071 64.7255 42.4392 64.8579C42.8075 64.9902 43.1461 65.1939 43.4355 65.4572C43.725 65.7206 43.9597 66.0384 44.1262 66.3925L47.4069 77.9991L53.8283 84.8485C53.951 84.9934 54.0263 85.1725 54.0439 85.3615C54.0616 85.5506 54.0207 85.7405 53.9269 85.9056L53.057 87.4282C52.9636 87.5914 52.8227 87.7223 52.653 87.8035C52.5879 87.8347 52.5194 87.858 52.4488 87.8731Z" fill="#E4E4E4"/>
<path id="Vector_48" d="M156.728 6.19565H38.15C38.1044 6.19549 38.0608 6.17729 38.0287 6.14503C37.9965 6.11277 37.9785 6.06909 37.9785 6.02354C37.9785 5.978 37.9965 5.93432 38.0287 5.90206C38.0608 5.8698 38.1044 5.8516 38.15 5.85144H156.728C156.774 5.8516 156.817 5.8698 156.85 5.90206C156.882 5.93432 156.9 5.978 156.9 6.02354C156.9 6.06909 156.882 6.11277 156.85 6.14503C156.817 6.17729 156.774 6.19549 156.728 6.19565Z" fill="#CACACA"/>
<path id="Vector_49" d="M42.0236 3.78624C43.0692 3.78624 43.9167 2.93866 43.9167 1.89312C43.9167 0.847579 43.0692 0 42.0236 0C40.9781 0 40.1305 0.847579 40.1305 1.89312C40.1305 2.93866 40.9781 3.78624 42.0236 3.78624Z" fill="#3F3D56"/>
<path id="Vector_50" d="M48.5635 3.78624C49.609 3.78624 50.4566 2.93866 50.4566 1.89312C50.4566 0.847579 49.609 0 48.5635 0C47.5179 0 46.6703 0.847579 46.6703 1.89312C46.6703 2.93866 47.5179 3.78624 48.5635 3.78624Z" fill="#3F3D56"/>
<path id="Vector_51" d="M55.1034 3.78624C56.1489 3.78624 56.9965 2.93866 56.9965 1.89312C56.9965 0.847579 56.1489 0 55.1034 0C54.0578 0 53.2103 0.847579 53.2103 1.89312C53.2103 2.93866 54.0578 3.78624 55.1034 3.78624Z" fill="#3F3D56"/>
<path id="Vector_52" d="M152.81 1.15801H148.163C148.072 1.1577 147.985 1.12129 147.921 1.05678C147.856 0.992261 147.82 0.90489 147.82 0.813807C147.82 0.722724 147.856 0.635356 147.921 0.570839C147.985 0.506323 148.072 0.469919 148.163 0.469604H152.81C152.901 0.469919 152.988 0.506323 153.053 0.570839C153.117 0.635356 153.153 0.722724 153.153 0.813807C153.153 0.90489 153.117 0.992261 153.053 1.05678C152.988 1.12129 152.901 1.1577 152.81 1.15801Z" fill="#3F3D56"/>
<path id="Vector_53" d="M152.81 2.44878H148.163C148.072 2.44847 147.985 2.41207 147.921 2.34755C147.856 2.28303 147.82 2.19566 147.82 2.10458C147.82 2.0135 147.856 1.92613 147.921 1.86161C147.985 1.79709 148.072 1.76069 148.163 1.76038H152.81C152.901 1.76069 152.988 1.79709 153.053 1.86161C153.117 1.92613 153.153 2.0135 153.153 2.10458C153.153 2.19566 153.117 2.28303 153.053 2.34755C152.988 2.41207 152.901 2.44847 152.81 2.44878Z" fill="#3F3D56"/>
<path id="Vector_54" d="M152.81 3.73943H148.163C148.072 3.73912 147.985 3.70271 147.921 3.6382C147.856 3.57368 147.82 3.48631 147.82 3.39523C147.82 3.30415 147.856 3.21677 147.921 3.15226C147.985 3.08774 148.072 3.05134 148.163 3.05103H152.81C152.901 3.05134 152.988 3.08774 153.053 3.15226C153.117 3.21677 153.153 3.30415 153.153 3.39523C153.153 3.48631 153.117 3.57368 153.053 3.6382C152.988 3.70271 152.901 3.73912 152.81 3.73943Z" fill="#3F3D56"/>
<path id="Vector_55" d="M79.3969 139.862H1.17351C1.11906 139.862 1.06684 139.841 1.02833 139.802C0.989831 139.764 0.968201 139.711 0.968201 139.657C0.968201 139.602 0.989831 139.55 1.02833 139.512C1.06684 139.473 1.11906 139.452 1.17351 139.452H79.3969C79.4513 139.452 79.5035 139.473 79.542 139.512C79.5805 139.55 79.6022 139.602 79.6022 139.657C79.6022 139.711 79.5805 139.764 79.542 139.802C79.5035 139.841 79.4513 139.862 79.3969 139.862Z" fill="#CACACA"/>
<path id="Vector_56" d="M120.988 33.2532H72.2724C72.0009 33.2591 71.7368 33.165 71.5301 32.9888C71.3235 32.8126 71.1888 32.5667 71.1517 32.2977C71.1363 32.1493 71.1523 31.9994 71.1985 31.8575C71.2448 31.7157 71.3203 31.5851 71.4203 31.4744C71.5202 31.3636 71.6422 31.275 71.7786 31.2143C71.9149 31.1537 72.0624 31.1224 72.2116 31.1223H120.912C121.188 31.1151 121.457 31.2102 121.667 31.3892C121.877 31.5683 122.013 31.8188 122.049 32.0923C122.062 32.2397 122.045 32.3882 121.997 32.5284C121.95 32.6686 121.874 32.7974 121.774 32.9066C121.674 33.0158 121.553 33.103 121.417 33.1627C121.282 33.2224 121.136 33.2532 120.988 33.2532Z" fill="#0099FF"/>
</g>
<defs>
<clipPath id="clip0_397_194">
<rect width="166.064" height="140" fill="white" transform="translate(0.968201)"/>
</clipPath>
</defs>
</svg>
