<svg width="188" height="140" viewBox="0 0 188 140" fill="none" xmlns="http://www.w3.org/2000/svg">
<g id="undraw_instant_support_re_s7un 1" clip-path="url(#clip0_397_363)">
<path id="Vector" d="M186.658 8.69757H67.0428C66.7801 8.69177 66.5718 8.47409 66.5776 8.21139C66.5833 7.95685 66.7883 7.75184 67.0428 7.74622H186.658C186.921 7.75202 187.129 7.96969 187.123 8.2324C187.118 8.48694 186.913 8.69195 186.658 8.69757Z" fill="#E6E6E6"/>
<path id="Vector_2" d="M88.1083 57.5793H136.367C136.49 57.5793 136.589 57.6788 136.589 57.8015V85.8623C136.589 85.985 136.49 86.0844 136.367 86.0844H88.1083V57.5793Z" fill="#E6E6E6"/>
<path id="Vector_3" d="M136.31 86.2361L88.0447 57.7946L88.1718 57.3641L136.438 85.8056C136.557 85.8407 136.624 85.9656 136.589 86.0844C136.554 86.2033 136.429 86.2712 136.31 86.2361Z" fill="white"/>
<path id="Vector_4" d="M88.1718 86.2997L88.0447 85.8692L136.31 57.4277C136.429 57.3926 136.554 57.4605 136.589 57.5794C136.624 57.6982 136.557 57.8231 136.438 57.8582L88.1718 86.2997Z" fill="white"/>
<path id="Vector_5" d="M130.886 29.5083H93.757C93.1766 29.5083 92.7062 29.9788 92.7062 30.5591V30.5591C92.7062 31.1394 93.1766 31.6099 93.757 31.6099H130.886C131.467 31.6099 131.937 31.1394 131.937 30.5591C131.937 29.9788 131.467 29.5083 130.886 29.5083Z" fill="#E6E6E6"/>
<path id="Vector_6" d="M135.878 36.0682H88.7656C88.1853 36.0682 87.7148 36.5387 87.7148 37.119V37.119C87.7148 37.6994 88.1853 38.1698 88.7656 38.1698H135.878C136.458 38.1698 136.928 37.6994 136.928 37.119C136.928 36.5387 136.458 36.0682 135.878 36.0682Z" fill="#E6E6E6"/>
<path id="Vector_7" d="M135.878 42.6282H88.7656C88.1853 42.6282 87.7148 43.0986 87.7148 43.679C87.7148 44.2593 88.1853 44.7298 88.7656 44.7298H135.878C136.458 44.7298 136.928 44.2593 136.928 43.679C136.928 43.0986 136.458 42.6282 135.878 42.6282Z" fill="#0099FF"/>
<path id="Vector_8" d="M180.552 64.7732C180.549 72.8854 175.422 80.1107 167.766 82.7937C167.604 82.852 167.441 82.905 167.277 82.9563C157.236 86.1664 146.493 80.6286 143.283 70.5873C140.073 60.546 145.611 49.8036 155.652 46.5935C165.693 43.3834 176.436 48.9212 179.646 58.9625C180.246 60.8409 180.552 62.8011 180.552 64.7732Z" fill="#E6E6E6"/>
<path id="Vector_9" d="M135.869 45.1512C135.792 46.036 136.447 46.8155 137.332 46.8923C137.426 46.9005 137.521 46.9003 137.615 46.8918L139.966 52.1003L141.553 49.5906L139.078 45.0293C138.939 44.1472 138.111 43.5448 137.229 43.6836C136.491 43.7998 135.929 44.4065 135.869 45.1512Z" fill="#FFB6B6"/>
<path id="Vector_10" d="M159.033 64.7661C158.999 64.6121 158.955 64.4604 158.902 64.3119C158.565 63.3546 157.879 62.5599 156.981 62.0869C156.96 62.0746 156.937 62.0622 156.916 62.0516L146.178 56.6032L145.225 54.7458L141.376 47.2474L140.433 47.5284L138.202 48.1912L138.151 48.2053L141.848 60.6466L142.696 61.297L152.305 68.6451L152.618 68.8855C154.214 70.1039 156.461 69.9717 157.904 68.5745C158.047 68.4365 158.18 68.2876 158.301 68.1291C159.034 67.173 159.302 65.9401 159.033 64.7661Z" fill="#0099FF"/>
<path id="Vector_11" d="M165.003 78.4303L164.946 76.3804L164.783 70.4354C165.372 66.6305 165.789 66.2081 162.951 63.6068C162.732 63.5597 162.542 63.4224 162.43 63.2286C162.171 62.7019 162.792 61.8077 162.256 60.431L158.031 60.6731L156.981 62.0869L152.757 67.7774C152.592 68.0588 152.441 68.3484 152.305 68.6451C150.497 72.5719 152.948 74.6591 153.139 75.0178L154.309 78.7025L154.954 82.2758L155.163 82.7724L155.751 82.988C159.505 84.1605 163.529 84.1494 167.277 82.9562C166.646 81.3869 165.886 79.873 165.003 78.4303Z" fill="#0099FF"/>
<path id="Vector_12" d="M173.187 92.8822C173.548 92.071 173.184 91.1204 172.372 90.7589C172.286 90.7204 172.196 90.6896 172.104 90.6668L171.583 84.9763L169.264 86.8303L170.114 91.9499C169.957 92.8289 170.543 93.6686 171.422 93.8253C172.157 93.9565 172.887 93.5666 173.187 92.8822Z" fill="#FFB6B6"/>
<path id="Vector_13" d="M165.105 64.9799C164.492 64.0527 163.524 63.4192 162.43 63.2285C162.195 63.1861 161.957 63.1648 161.719 63.1649C160.925 63.165 160.149 63.3992 159.487 63.8382C159.277 63.9768 159.081 64.1354 158.902 64.3119C157.296 65.8673 157.255 68.4302 158.811 70.0363L158.812 70.0377L164.946 76.3803L167.182 78.6919L167.767 82.7936L168.666 89.1044L169.649 89.1468L171.974 89.2493L172.027 89.2511L172.414 80.4079L172.595 76.2849L165.105 64.9799Z" fill="#0099FF"/>
<path id="Vector_14" d="M156.723 50.7305C155.229 53.675 156.205 57.0857 158.977 58.8792C161.974 60.8186 165.867 60.394 167.125 56.625C168.527 52.4279 167.376 50.6274 164.871 48.4764C161.936 45.9556 158.337 47.5491 156.723 50.7305Z" fill="#2F2E41"/>
<path id="Vector_15" d="M164.076 57.2899C162.492 59.3667 159.524 59.7659 157.447 58.1815C155.373 56.5991 154.972 53.6361 156.55 51.559L156.591 51.5051C158.222 49.4643 161.198 49.1316 163.239 50.7621C165.233 52.3556 165.603 55.2442 164.075 57.289L164.076 57.2899Z" fill="#FFB6B6"/>
<path id="Vector_16" d="M155.275 50.2538C156.044 50.9852 156.981 51.5161 158.003 51.7996C158.208 51.5625 158.451 51.3612 158.722 51.2038C158.592 51.4737 158.503 51.7615 158.458 52.0575C158.914 53.0039 160.777 53.6841 162.557 54.38L164.915 50.2188L161.794 48.4505C159.286 46.7168 156.334 47.4567 155.275 50.2538Z" fill="#2F2E41"/>
<path id="Vector_17" d="M166.693 48.4816C167.156 48.3112 167.673 48.3868 168.067 48.6823C168.447 48.9711 168.755 49.3448 168.964 49.7734C169.346 50.4669 169.62 51.2144 169.778 51.9902C169.912 52.6613 169.89 53.4728 169.287 53.823C168.785 54.1153 168.067 53.9313 167.605 53.5412C167.177 53.132 166.852 52.627 166.657 52.0677C166.432 51.5325 166.219 50.9775 165.818 50.533L166.235 50.7272C166.103 50.3279 166.042 49.9089 166.053 49.4887C166.073 49.0632 166.316 48.6799 166.693 48.4816Z" fill="#2F2E41"/>
<path id="Vector_18" d="M161.295 49.027L164.644 50.9241C166.529 51.9924 167.191 54.3868 166.123 56.2721C164.574 59.0043 161.202 60.111 158.336 58.8276L161.395 56.1268L157.245 58.2414L156.359 57.7393C160.81 56.93 161.669 53.4384 161.295 49.027Z" fill="#2F2E41"/>
<path id="Vector_19" d="M167.62 52.3614C168.184 53.0174 169.066 53.2725 169.862 53.6138C172.714 54.8649 174.764 57.443 175.34 60.5031C175.56 61.7309 175.532 63.0018 175.879 64.1987C176.225 65.3956 177.08 66.5698 178.308 66.7776C179.139 66.9195 179.972 66.5986 180.753 66.2819C181.183 66.1092 181.613 65.9358 182.043 65.7616C181.594 64.6367 181.147 63.5118 180.7 62.3869C181.418 63.4485 182.253 64.426 183.19 65.301C184.73 64.6799 186.272 64.0589 187.815 63.4378C184.019 63.4522 184.667 59.7669 183.817 56.0693C183.351 54.0375 179.375 52.6617 178.596 50.7286C177.378 47.6978 173.935 46.2278 170.904 47.4452C169.598 47.9698 168.522 48.9429 167.869 50.1898C167.09 50.5003 167.067 51.7136 167.62 52.3614Z" fill="#2F2E41"/>
<path id="Vector_20" d="M57.3421 87.9593C56.6308 87.0586 56.7844 85.7518 57.6851 85.0405C57.7723 84.9716 57.865 84.9099 57.9621 84.8558L56.8779 74.5551L59.6534 73.5547L60.8516 85.7984C61.3333 86.8383 60.8807 88.0719 59.8408 88.5535C58.9706 88.9566 57.9377 88.7109 57.3421 87.9593Z" fill="#FFB6B6"/>
<path id="Vector_21" d="M55.8578 50.1938C55.8578 50.1938 60.3634 52.3922 60.378 54.9766C60.3927 57.561 60.7659 59.8985 60.4133 60.8984C60.0607 61.8984 61.3093 69.1669 60.7248 69.8867C60.1403 70.6065 61.3445 70.9749 60.7117 72.2068C60.079 73.4386 59.7988 73.6705 60.0307 73.9507C60.2626 74.2308 60.6032 79.5709 60.6032 79.5709L56.8906 80.0352L52.9412 62.7994L55.8578 50.1938Z" fill="#3F3D56"/>
<path id="Vector_22" d="M34.4316 89.0056C35.276 88.2283 35.3304 86.9137 34.5531 86.0693C34.4778 85.9875 34.3961 85.9119 34.3087 85.8431L37.0034 75.8422L34.4204 74.4167L31.3067 86.3184C30.6671 87.2694 30.9195 88.5588 31.8704 89.1984C32.6662 89.7336 33.725 89.6539 34.4316 89.0056Z" fill="#FFB6B6"/>
<path id="Vector_23" d="M41.8517 51.9467C41.8517 51.9467 37.0559 53.4071 36.634 55.9569C36.2121 58.5066 35.475 60.756 35.6655 61.7991C35.856 62.8421 33.477 69.8229 33.9406 70.6258C34.4043 71.4288 33.1571 71.6027 33.5877 72.9189C34.0184 74.2351 34.2585 74.5083 33.9853 74.7484C33.7121 74.9885 32.5338 80.208 32.5338 80.208L36.1268 81.2519L42.7444 64.8544L41.8517 51.9467Z" fill="#3F3D56"/>
<path id="Vector_24" d="M60.2692 133.749L63.468 133.749L64.9898 121.411L60.2688 121.411L60.2692 133.749Z" fill="#FFB6B6"/>
<path id="Vector_25" d="M64.5325 134.037V131.869L63.6916 131.92L60.2684 132.123L59.4761 132.171L58.8705 139.434L58.838 139.824H61.1093L61.1823 139.437L61.5122 137.679L62.3639 139.437L62.5505 139.824H68.5722C69.318 139.819 69.921 139.215 69.9242 138.469C70.1784 137.282 65.1707 134.716 64.5325 134.037Z" fill="#2F2E41"/>
<path id="Vector_26" d="M22.7936 130.267L25.5758 131.846L32.9882 121.866L28.8821 119.536L22.7936 130.267Z" fill="#FFB6B6"/>
<path id="Vector_27" d="M26.3608 132.62L27.4288 130.736L26.6771 130.365L23.5973 128.854L22.8835 128.502L19.3765 133.637L18.5518 134.843L19.4846 135.373L20.5257 135.965L21.9371 134.299L21.7803 136.676L26.6988 139.469H26.7015L27.0178 139.648C27.6683 140.015 28.4934 139.787 28.8619 139.137C29.6677 138.228 26.5798 133.529 26.3608 132.62Z" fill="#2F2E41"/>
<path id="Vector_28" d="M44.3948 73.1834C37.3051 73.4382 34.8135 102.344 36.9785 102.868L26.8751 121.697L41.2559 128.144L50.7115 95.3119L52.2874 107.394L50.1861 126.568L59.4816 128.816L65.9111 128.357C64.2404 105.502 60.0691 81.3969 56.6122 72.0728L44.3948 73.1834Z" fill="#2F2E41"/>
<path id="Vector_29" d="M41.1402 75.2101L41.0936 75.3856C45.6251 77.9068 48.7196 77.3674 53.6732 75.8413L57.2894 75.0813C58.0787 74.052 57.4355 73.0453 56.5609 72.065L58.7289 54.2339C58.7143 51.9238 56.8297 50.0628 54.5195 50.0774C54.4246 50.078 54.3297 50.0818 54.2351 50.0889L50.9786 47.6765L46.3426 47.8365L43.2416 51.2618L41.389 51.9237L39.9496 52.4369C39.6586 52.699 39.3409 53.0011 39.0366 53.3343L41.3135 66.8845L42.282 70.9362C40.9837 72.4165 40.2684 73.8614 41.1402 75.2101Z" fill="#3F3D56"/>
<path id="Vector_30" d="M14.8398 137.586C11.4664 137.184 8.45454 135.281 6.64316 132.407C5.4801 130.521 4.87997 128.281 4.29958 126.115C4.13059 125.484 3.95596 124.833 3.77103 124.204C3.34325 122.799 3.81319 121.275 4.95796 120.355C6.06463 119.428 7.62436 119.267 8.89716 119.949L9.03296 120.021L9.27093 125.369C9.62354 124.653 10.3973 123.034 11.0104 121.418L11.0618 121.283L11.1792 121.367C12.4117 122.253 13.5278 123.29 14.5012 124.454C17.9798 128.683 19.4221 134.228 18.4449 139.616L18.4153 139.775L14.8398 137.586Z" fill="#F2F2F2"/>
<path id="Vector_31" d="M0.184694 139.736C0.18426 139.881 0.301905 140 0.447461 140H187.551C187.697 140 187.815 139.882 187.815 139.736C187.815 139.59 187.697 139.471 187.551 139.471H0.449036C0.303473 139.471 0.185127 139.589 0.184696 139.734L0.184694 139.736Z" fill="#CCCCCC"/>
<path id="b-500" d="M55.2537 44.6347L55.2583 44.6335C55.7631 44.4999 56.0641 43.9823 55.9305 43.4774L54.5836 38.375C54.3432 37.4606 53.9214 36.6039 53.3432 35.8558C52.2126 34.3965 50.5625 33.4299 48.7367 33.1573C47.7944 33.0176 46.8336 33.0703 45.9122 33.3119C42.1425 34.3007 41.0896 35.5474 40.8769 41.9278C40.6641 48.3081 42.2258 47.038 42.2258 47.038C42.2581 47.161 42.3149 47.2763 42.3927 47.3769C42.545 47.573 42.7671 47.7027 43.0128 47.7389C43.1388 47.7574 43.2672 47.7503 43.3904 47.7181C48.0979 47.2335 52.8655 46.7923 55.2545 44.6345L55.2537 44.6347Z" fill="#2F2E41"/>
<path id="c-501" d="M44.1856 39.2479C43.4948 42.0365 45.1953 44.8572 47.984 45.548C49.3205 45.8791 50.7337 45.6669 51.914 44.9577C53.0939 44.2538 53.943 43.1069 54.2718 41.7729C54.9604 38.9837 53.2575 36.1644 50.4683 35.4758C49.1351 35.1467 47.7258 35.3581 46.5479 36.0639C45.3664 36.7668 44.5156 37.9134 44.1856 39.2479Z" fill="#FFB6B6"/>
<path id="d-502" d="M56.3116 38.363C56.1215 37.6399 55.7878 36.9623 55.3306 36.3707C54.681 34.7514 53.6621 33.4425 51.688 34.2371C50.9475 34.1277 50.1926 34.1683 49.4682 34.3566L48.4456 34.621C48.4341 34.624 48.4226 34.627 48.4111 34.63C45.4376 35.4169 43.665 38.4653 44.4518 41.4389L44.4788 41.5411L46.6415 40.9795L46.8349 38.727L47.5265 40.7502L48.6437 40.4605L48.7411 39.3242L49.09 40.3441C51.2083 41.1671 53.6632 40.3507 56.3377 38.4657L56.3116 38.363Z" fill="#2F2E41"/>
<path id="e-503" d="M51.3497 45.4932C51.4271 45.6493 51.4591 45.8239 51.4421 45.9972C51.4341 46.0857 51.4136 46.1727 51.3814 46.2556C51.3537 46.3263 51.3178 46.3934 51.2743 46.4556C51.1455 46.6395 50.9554 46.7714 50.7382 46.8278C50.7246 46.8312 50.711 46.8344 50.6973 46.8374C50.6836 46.8403 50.6698 46.8429 50.656 46.8452C50.642 46.8477 50.628 46.8498 50.614 46.8514C50.6 46.8531 50.5858 46.8546 50.5715 46.8558L49.768 46.9188L48.1162 44.9412L48.6618 47.008L45.0099 47.3006L42.6948 38.5302L48.5466 37.0155L48.4464 37.2214C48.1155 37.9111 47.9812 38.6787 48.0584 39.4397C48.1404 40.2096 48.3536 40.9597 48.6889 41.6575C49.0225 42.3651 49.4233 43.039 49.8857 43.6699C50.2922 44.2298 50.7305 44.7657 51.1986 45.2751C51.2589 45.3404 51.3098 45.4138 51.3497 45.4932Z" fill="#2F2E41"/>
<g id="Group">
<path id="Vector_32" d="M80.3216 3.84074C81.3591 3.84074 82.2001 2.98096 82.2001 1.92037C82.2001 0.859779 81.3591 0 80.3216 0C79.2842 0 78.4431 0.859779 78.4431 1.92037C78.4431 2.98096 79.2842 3.84074 80.3216 3.84074Z" fill="#3F3D56"/>
<path id="Vector_33" d="M86.811 3.84074C87.8485 3.84074 88.6895 2.98096 88.6895 1.92037C88.6895 0.859779 87.8485 0 86.811 0C85.7735 0 84.9325 0.859779 84.9325 1.92037C84.9325 2.98096 85.7735 3.84074 86.811 3.84074Z" fill="#3F3D56"/>
<path id="Vector_34" d="M93.3004 3.84074C94.3379 3.84074 95.1789 2.98096 95.1789 1.92037C95.1789 0.859779 94.3379 0 93.3004 0C92.2629 0 91.4219 0.859779 91.4219 1.92037C91.4219 2.98096 92.2629 3.84074 93.3004 3.84074Z" fill="#3F3D56"/>
<path id="Vector_35" d="M100.7 3.43819C100.642 3.43819 100.585 3.41584 100.541 3.37138L99.2737 2.07566C99.1892 1.98932 99.1892 1.85136 99.2737 1.76502L100.541 0.469415C100.627 0.381776 100.768 0.380365 100.855 0.465945C100.943 0.55174 100.945 0.692418 100.859 0.780057L99.7432 1.92034L100.859 3.06073C100.945 3.14837 100.943 3.28905 100.855 3.37485C100.812 3.41715 100.756 3.43819 100.7 3.43819Z" fill="#3F3D56"/>
<path id="Vector_36" d="M102.83 3.43823C102.774 3.43823 102.718 3.41719 102.675 3.37489C102.587 3.28909 102.585 3.14852 102.671 3.06077L103.787 1.92038L102.671 0.780097C102.585 0.692459 102.587 0.551781 102.675 0.465986C102.762 0.380082 102.903 0.38171 102.989 0.469455L104.256 1.76506C104.341 1.8514 104.341 1.98937 104.256 2.0757L102.989 3.37142C102.945 3.41589 102.888 3.43823 102.83 3.43823Z" fill="#3F3D56"/>
<path id="Vector_37" d="M169.139 0.22229H166.782C166.514 0.22229 166.296 0.439978 166.296 0.708765V3.06784C166.296 3.33662 166.514 3.55431 166.782 3.55431H169.139C169.408 3.55431 169.628 3.33662 169.628 3.06784V0.708765C169.628 0.439978 169.408 0.22229 169.139 0.22229Z" fill="#3F3D56"/>
<path id="Vector_38" d="M163.364 0.22229H161.007C160.738 0.22229 160.521 0.439978 160.521 0.708765V3.06784C160.521 3.33662 160.738 3.55431 161.007 3.55431H163.364C163.633 3.55431 163.853 3.33662 163.853 3.06784V0.708765C163.853 0.439978 163.633 0.22229 163.364 0.22229Z" fill="#3F3D56"/>
<path id="Vector_39" d="M174.582 0.333374H172.225C171.956 0.333374 171.738 0.551062 171.738 0.819849V3.17892C171.738 3.44771 171.956 3.66539 172.225 3.66539H174.582C174.85 3.66539 175.07 3.44771 175.07 3.17892V0.819849C175.07 0.551062 174.85 0.333374 174.582 0.333374Z" fill="#3F3D56"/>
<path id="Vector_40" d="M139.057 1.23083H120.218C119.889 1.23083 119.625 1.4974 119.625 1.82394C119.625 2.15049 119.889 2.41704 120.218 2.41704H139.057C139.384 2.41704 139.651 2.15047 139.651 1.82394C139.651 1.49741 139.384 1.23083 139.057 1.23083Z" fill="#3F3D56"/>
</g>
</g>
<defs>
<clipPath id="clip0_397_363">
<rect width="187.631" height="140" fill="white" transform="translate(0.184692)"/>
</clipPath>
</defs>
</svg>
