<svg width="48" height="31" viewBox="0 0 48 31" fill="none" xmlns="http://www.w3.org/2000/svg">
<path id="Vector" d="M30.2499 1.36262L25.5677 0.103134L21.622 14.8863L18.0598 1.53996L13.3775 2.79945L17.2263 17.2192L7.63983 7.59533L4.21223 11.0363L14.7274 21.5926L1.63243 18.0701L0.377838 22.7705L14.6857 26.6193C14.5219 25.91 14.4352 25.1709 14.4352 24.4115C14.4352 19.0363 18.7757 14.6789 24.13 14.6789C29.4843 14.6789 33.8248 19.0363 33.8248 24.4115C33.8248 25.166 33.7392 25.9005 33.5774 26.6056L46.5806 30.1034L47.8351 25.403L33.4704 21.5389L46.5662 18.0162L45.3115 13.3158L30.9474 17.1796L40.5338 7.55582L37.1062 4.11483L26.7369 14.5246L30.2499 1.36262Z" fill="#0099FF"/>
</svg>
